<?xml version="1.0" encoding="utf-8"?>
<!-- Generator: Adobe Illustrator 27.3.1, SVG Export Plug-In . SVG Version: 6.00 Build 0)  -->
<svg version="1.1" id="Layer_1" xmlns="http://www.w3.org/2000/svg" xmlns:xlink="http://www.w3.org/1999/xlink" x="0px" y="0px"
	 viewBox="0 0 582.33 446.11" style="enable-background:new 0 0 582.33 446.11;" xml:space="preserve">
<style type="text/css">
	.st0{fill-rule:evenodd;clip-rule:evenodd;fill:#FFFFFF;}
	.st1{fill:#FFFFFF;}
</style>
<g>
	<g>
		<path class="st0" d="M290.25,22.09c20.25,0,40.5,3.07,58.91,8.59v127.63H230.72V31.29C249.75,25.77,269.38,22.09,290.25,22.09
			L290.25,22.09z M349.77,283.5v133.16c-18.41,5.52-38.66,8.59-58.91,8.59c-20.25,0-40.5-3.07-58.91-8.59V283.5H349.77L349.77,283.5
			z"/>
		<path class="st0" d="M226.43,158.32H100.63c20.25-58.91,66.89-105.54,125.79-125.18V158.32L226.43,158.32z M226.43,283.5v131.32
			c-60.75-20.25-108.61-69.34-127.63-131.32H226.43L226.43,283.5z"/>
		<path class="st0" d="M354.68,158.32h125.79C460.22,99.41,413.59,52.77,354.68,33.14V158.32L354.68,158.32z M354.68,283.5v131.32
			c60.75-20.25,108.61-69.34,127.63-131.32H354.68L354.68,283.5z"/>
		<g>
			<path class="st1" d="M442.43,375.54c-40.5,41.11-93.89,63.2-150.95,63.2s-111.07-22.09-150.95-63.2
				c-25.77-25.77-44.18-57.68-54-92.04h-7.36c9.82,36.82,28.84,69.95,56.45,97.57c41.73,42.34,97.57,65.04,155.86,65.04
				c58.91,0,114.75-22.7,155.86-65.04c27-27,46.64-60.75,56.45-97.57h-7.36C487.22,317.86,468.2,349.77,442.43,375.54z"/>
			<path class="st1" d="M140.52,70.57c40.5-41.11,93.89-63.2,150.95-63.2s111.07,22.09,150.95,63.2
				c24.55,24.55,42.34,54.61,52.77,86.52h7.36c-10.43-34.98-28.84-65.66-55.23-92.04C405.61,22.7,349.77,0,291.47,0
				S176.73,22.7,135.61,65.04c-25.77,25.77-44.79,57.68-55.23,92.04h7.36C98.18,125.18,115.98,95.73,140.52,70.57z"/>
		</g>
	</g>
	<g>
		<g>
			<path class="st1" d="M0,160.77v119.04h582.33V160.77H0z M127.63,189.61c0,1.23,0,1.23-4.3,1.23c-4.3,0-5.52,1.84-5.52,8.59
				c0,67.5,0,58.91-1.23,59.52c-1.84,0.61-2.45,0.61-6.14-4.91l-38.66-46.64c-1.23-0.61-1.23,0-1.84,1.23v39.27
				c0.61,4.3,2.45,5.52,7.36,5.52c1.84,0,1.84,0,2.45,1.23c0,3.07,1.84,2.45-14.73,2.45c-12.89,0-11.05,0-11.66-1.23
				c0-3.07,0-3.07,3.07-3.07c4.3,0,6.14-1.84,6.14-7.36c0.61-27.61,0-20.86,0.61-48.48c-3.07-3.68-2.45-3.07-4.91-4.91
				c-2.45-1.84-3.68-1.84-6.75-1.84c-1.84,0-1.84-0.61-1.84-1.84l0,0c0-2.45-1.84-2.45,15.34-2.45c0.61,0,4.3,0,4.91,0
				c22.7,28.23,17.18,20.86,40.5,49.7v-41.73c-0.61-1.84-3.07-3.68-4.91-3.68h-3.68c-0.61-0.61-0.61-3.07,0-3.68
				c0-0.61-2.45,0,20.86-0.61C128.25,186.54,127.63,186.54,127.63,189.61z M189,242.38l-4.91,15.34c-30.68,0-22.7,0-54,0
				c-0.61-0.61-0.61-3.07,0-3.68c2.45,0,1.84,0,4.3-0.61c4.3-0.61,5.52-2.45,5.52-8.59l-0.61-50.93c-1.23-3.07-2.45-3.68-7.36-3.68
				c-2.45,0-2.45,0-1.84-3.07c0-1.23-5.52-0.61,41.73-0.61h13.5c0.61,16.57,0.61,14.11,0.61,15.95c0,0.61,0,1.23-1.23,1.23
				c-1.84,0.61-2.45,0-3.07-1.84c-0.61-1.84-0.61-1.23-1.23-3.68c-1.23-4.91-4.3-6.14-15.95-6.14c-6.75,0-5.52,0-12.27,0.61
				c0,14.11,0,10.43,0,25.16c6.14,0,4.91,0,11.05,0l0,0c8.59,0,8.59-0.61,10.43-3.07l1.23-4.91c0.61-1.84,1.23-2.45,3.07-1.84
				c1.23,0,0.61-2.45,0.61,20.86c0,6.14,0,5.52-1.23,5.52c-1.84,0-3.07-1.23-3.07-4.3c0-4.3-3.07-6.14-9.82-6.14
				c-3.07,0-1.23,0-12.89,0v28.84c3.68-0.61,1.23-0.61,14.73-0.61c11.05,0,13.5-1.84,19.64-12.89c0.61-0.61,2.45-1.23,3.68-0.61
				C190.22,239.31,190.22,239.31,189,242.38z M250.97,204.95c-1.84,0-2.45-1.23-2.45-4.3c-0.61-3.68-3.68-6.75-8.59-6.75
				c-3.07-0.61-1.23,0-11.05-0.61c0,63.82,0,55.84,0.61,57.07c1.23,3.07,2.45,3.68,6.75,3.68c1.84,0,2.45,0.61,2.45,2.45
				s3.07,1.84-23.32,1.84c-8.59,0-7.36,0-7.36-1.23c0-3.07,0-3.07,2.45-3.07c4.91,0,6.75-1.84,6.75-7.98c0-30.07,0-22.7,0-53.39
				c-17.18,1.84-14.73,1.23-17.18,4.3c-1.23,1.84-1.23,2.45-2.45,6.75c-0.61,1.23-1.23,1.84-2.45,1.23c-1.84,0-1.84,0-0.61-12.89
				c0-2.45,0.61-3.07,0.61-5.52h44.18c7.36,0,5.52,0,12.89,0l0.61,17.18C252.81,204.34,252.2,204.95,250.97,204.95z M320.31,209.25
				c-1.23-0.61-0.61,0-1.23-5.52c0-3.07-1.23-6.75-3.07-8.59l0,0c-6.14-7.36-20.86-5.52-30.07,4.3
				c-12.27,12.27-16.57,34.98-9.2,45.41c4.3,6.75,12.27,9.2,22.09,7.36c5.52-1.23,8.59-3.68,14.73-11.05
				c1.23-1.23,4.3-1.84,4.91-0.61c0.61,1.23-5.52,8.59-9.82,12.27c-14.11,11.05-37.43,7.36-45.41-7.36
				c-4.91-9.2-4.91-18.41-0.61-29.45c6.75-17.8,23.32-30.07,41.73-30.07c4.3,0,3.07-0.61,12.27,2.45c3.07,1.23,4.3,0.61,6.75-1.84
				c1.23-1.23,3.07-1.23,4.3-0.61c0.61,0.61,0.61,1.23-0.61,4.3c-0.61,2.45-3.07,12.89-3.68,17.18
				C323.38,208.63,322.15,209.86,320.31,209.25z M528.33,241.77l-5.52,15.95c-42.34,0-31.91,0-73.64,0l-23.32-32.52
				c-1.23-0.61-4.3-0.61-4.91,0.61c-0.61,1.23-0.61,22.09,0,23.93c0.61,1.84,3.07,3.07,5.52,3.07c3.07,0,3.68,0,3.68,1.23
				c0,3.07,2.45,2.45-17.8,2.45c-49.7,0-43.57,0-44.18-0.61c-0.61-1.23,0-3.68,1.23-3.68c6.14,0,6.75-1.84,4.91-7.98l-4.91-11.66
				h-24.55c-7.36,17.8-6.75,15.34-5.52,17.18c0.61,1.23,3.07,1.84,6.14,2.45c1.23,0,1.23,0.61,1.23,3.07
				c-0.61,1.23,2.45,0.61-19.02,0.61c-4.3,0-4.3,0-4.3-3.07c0-0.61,0-0.61,2.45-1.23c4.91-1.23,3.07,3.07,30.07-61.36
				c3.07-7.36,2.45-6.75,3.68-6.75c2.45,0,1.84-1.23,6.14,9.2l22.7,54.61c3.07,4.3,6.75,6.14,14.11,4.91
				c3.68-0.61,5.52-2.45,5.52-6.14c0-60.75,0-53.39-1.23-54c-3.07-2.45-2.45-2.45-7.36-2.45c-1.23,0-1.84,0-1.84-0.61
				c0-3.68,0-3.07,1.84-3.07h28.23c15.34,0.61,23.32,5.52,25.16,16.57c1.23,7.36-3.07,14.73-10.43,18.41
				c-1.84,0.61-3.07,1.23-4.91,1.84c17.8,25.77,15.34,22.09,19.02,25.16c3.68,3.07,8.59,4.3,14.11,4.3c1.84,0,3.68-0.61,5.52-0.61
				c0-33.14,0-24.55,0-58.29c-0.61-3.07-1.84-3.68-7.36-3.68c-1.84,0-1.84,0-1.84-3.07c0.61-1.23-3.68-1.23,27-1.23h27.61
				l0.61,16.57c0,0.61-0.61,0.61-1.23,0.61c-1.23,0-1.84-0.61-2.45-1.84l0,0c-0.61-0.61,0-0.61-0.61-3.07
				c-1.23-4.91-4.91-6.75-14.73-6.75c-3.07,0-9.82,0-14.11,0V216h12.27c8.59,0,11.05-1.84,10.43-7.36c0-1.84,0.61-3.07,3.07-2.45
				c1.23,0,1.23-3.07,1.23,22.09c0,2.45,0,2.45,0,3.68c0,0.61,0,0.61-1.23,1.23c-1.84,0-3.07-0.61-3.07-1.84
				c0-6.14-2.45-8.59-7.98-8.59c-8.59,0-6.75,0-15.34,0c0,15.95,0,12.27,0.61,28.23h21.48c5.52-1.23,7.36-2.45,12.27-11.05
				c1.23-1.84,3.07-2.45,4.3-1.23C529.56,239.31,529.56,239.31,528.33,241.77z"/>
			<path class="st1" d="M436.9,195.75L436.9,195.75c-1.84-1.84-5.52-3.07-7.98-3.07c-3.68,0-2.45-0.61-7.36,0.61v27l6.14-1.23
				c7.98-1.23,12.27-4.3,13.5-10.43C442.43,204.34,440.58,198.82,436.9,195.75z"/>
			<path class="st1" d="M360.81,211.7l-3.07-7.36c-5.52,13.5-4.3,9.82-9.82,23.32h19.64C363.88,219.07,365.11,221.52,360.81,211.7
				L360.81,211.7z"/>
		</g>
		<g>
			<path class="st1" d="M360.81,211.7l-3.07-7.36c-5.52,13.5-4.3,9.82-9.82,23.32h19.64C363.88,219.07,365.11,221.52,360.81,211.7
				L360.81,211.7z"/>
			<path class="st1" d="M436.9,195.75L436.9,195.75c-1.84-1.84-5.52-3.07-7.98-3.07c-3.68,0-2.45-0.61-7.36,0.61v27l6.14-1.23
				c7.98-1.23,12.27-4.3,13.5-10.43C442.43,204.34,440.58,198.82,436.9,195.75z"/>
		</g>
	</g>
</g>
</svg>
