<?xml version="1.0" encoding="utf-8"?>
<!-- Generator: Adobe Illustrator 27.3.1, SVG Export Plug-In . SVG Version: 6.00 Build 0)  -->
<svg version="1.1" id="Layer_1" xmlns="http://www.w3.org/2000/svg" xmlns:xlink="http://www.w3.org/1999/xlink" x="0px" y="0px"
	 viewBox="0 0 656.18 275.58" style="enable-background:new 0 0 656.18 275.58;" xml:space="preserve">
<style type="text/css">
	.st0{fill:#FFFFFF;}
</style>
<g id="_x39_yVEDi_00000071548994383251986500000003617957244304123553_">
	<g>
		<path class="st0" d="M399.59,256.34c0,6.46,0,12.71,0,18.96c-0.99,0.28-140.31,0.4-142.88,0.13c-0.33-0.95-0.4-17.5-0.05-19.09
			c0.43,0,0.91,0,1.38,0c3.18,0,6.35,0.05,9.53-0.02c4.95-0.11,9.83-0.7,14.6-2.08c10-2.88,16.32-9.37,19.11-19.35
			c1.43-5.09,1.91-10.3,2-15.56c0.06-3.75,0.06-7.5,0.06-11.24c0-62.23,0-124.45,0-186.68c0-0.69,0-1.39,0-2.08
			c-0.33-0.1-0.49-0.19-0.65-0.18c-2.47,0.04-4.94,0.03-7.4,0.16c-2.59,0.13-5.19,0.3-7.77,0.62c-14.21,1.77-27.23,6.39-38.05,16.15
			c-7.29,6.58-12.37,14.64-15.75,23.81c-2.22,6.02-3.6,12.24-4.33,18.62c-0.52,4.52-0.75,9.05-0.74,13.59c0,0.39,0,0.79,0,1.15
			c-0.99,0.33-14.37,0.43-16.22,0.13c0-31.01,0-62.03,0-93.17c0.31-0.06,0.64-0.15,0.97-0.18c0.39-0.03,0.79-0.01,1.19-0.01
			c75.57,0,151.14,0,226.7,0c0.53,0,1.06,0.01,1.59,0.02c0.53,0.01,0.82,0.26,0.83,0.8c0.01,0.35,0.02,0.71,0.02,1.06
			c0,29.94,0,59.89,0,89.83c0,0.52,0,1.04,0,1.51c-1.13,0.34-14.58,0.4-16.21,0.1c-0.04-0.39-0.1-0.81-0.12-1.23
			c-0.13-3.44-0.13-6.88-0.41-10.3c-1.05-12.61-4.27-24.55-11.37-35.21c-7-10.52-16.62-17.74-28.38-22.19
			c-5.58-2.11-11.35-3.48-17.26-4.29c-5.34-0.73-10.7-1.01-16.08-0.99c-0.3,0-0.6,0.05-0.98,0.08c-0.06,0.32-0.14,0.6-0.16,0.89
			c-0.03,0.44-0.01,0.88-0.01,1.32c0,64.87,0,129.75,0,194.62c0,4.46,0.12,8.9,0.82,13.32c0.57,3.58,1.46,7.07,2.96,10.39
			c3.11,6.9,8.39,11.42,15.47,13.9c4.01,1.4,8.16,2.23,12.4,2.41c4.54,0.19,9.08,0.2,13.62,0.29
			C398.5,256.35,398.98,256.34,399.59,256.34z"/>
		<path class="st0" d="M212.43,126.96c18.25,0,36.45,0,54.64,0c0.27,1.03,0.31,53.38,0.04,54.79c-18.18,0-36.38,0-54.67,0
			C212.43,163.52,212.43,145.33,212.43,126.96z"/>
		<path class="st0" d="M389.01,181.67c-0.26-0.99-0.33-53.07-0.07-54.57c0.97-0.29,53.13-0.35,54.56-0.06
			c0.29,1,0.36,53.11,0.07,54.56C442.64,181.88,390.51,181.94,389.01,181.67z"/>
	</g>
</g>
</svg>
