<?xml version="1.0" encoding="utf-8"?>
<!-- Generator: Adobe Illustrator 27.3.1, SVG Export Plug-In . SVG Version: 6.00 Build 0)  -->
<svg version="1.1" id="Layer_1" xmlns="http://www.w3.org/2000/svg" xmlns:xlink="http://www.w3.org/1999/xlink" x="0px" y="0px"
	 viewBox="0 0 656.18 275.58" style="enable-background:new 0 0 656.18 275.58;" xml:space="preserve">
<style type="text/css">
	.st0{fill:#FFFFFF;}
</style>
<g id="mjpY55.tif">
	<g>
		<path class="st0" d="M423.61,152.53c-1.5-3.99-3.99-8.48-4.49-12.46c-3.99-9.47-5.48-19.44-6.48-29.92c-1-8.48-1-16.45,1-24.93
			c1.5-9.97,3.99-18.95,7.98-28.42c9.47-19.44,23.43-34.4,43.38-44.87c9.47-4.49,19.45-7.98,30.41-9.47c10.97-1.5,21.94-1,32.91,1
			c12.46,2.49,23.43,6.98,32.91,13.96c9.97,6.98,17.95,17.45,23.43,28.42c6.98,15.95,9.47,31.41,7.98,48.86
			c-1,9.97-3.99,20.44-9.47,28.92c-8.48,13.96-20.44,24.43-36.4,29.92c-9.97,3.99-21.44,4.49-32.41,3.99
			c-13.96-1.5-27.42-6.98-37.89-17.45c-9.47-8.48-13.96-18.95-16.45-31.41c-2.49-10.97-1.5-21.94,2.49-32.91
			c5.48-15.95,15.95-25.93,31.41-31.41c11.97-3.99,23.43-3.99,35.4,2.49c9.47,4.49,14.96,13.46,15.95,24.43
			c1,9.47-2.49,16.45-9.47,22.94c-3.99,2.99-6.98,4.49-12.46,5.48c-1,0-1.5,1-2.49,1c6.48,5.48,12.46,11.97,18.95,16.45
			c-1,1-1,1-1.5,1c-2.99,2.49-6.48,3.99-9.47,6.48c-1,1-1.5,1-2.49,0c-10.97-8.48-21.94-17.45-30.41-28.92c-1-1-1-1.5,1-2.49
			c2.99-2.49,5.48-3.99,9.47-5.48c1-1,2.49-1,2.49-1c3.99,1,7.98,1,11.97-1c5.48-2.49,7.98-6.98,7.98-12.46
			c0-5.48-2.99-10.97-8.48-12.46c-13.46-5.48-28.42,0-35.4,12.46c-4.49,6.98-6.48,15.95-5.48,24.93c1,7.98,2.49,14.96,6.98,21.94
			c5.48,7.98,13.46,13.46,21.94,15.95c6.98,2.49,15.95,2.49,22.93,1c16.45-2.99,28.42-12.46,33.9-28.92
			c6.98-20.44,4.49-39.89-6.98-58.83c-8.48-12.46-20.44-18.95-34.4-21.94c-9.47-2.49-17.95-2.49-27.42-1
			c-13.46,2.49-24.43,7.98-34.4,17.45c-12.46,11.97-18.95,25.93-21.94,42.38c-2.49,16.45,0,32.41,6.48,47.37c1,1.5,1,2.49-1,2.99
			C436.57,142.06,429.59,147.04,423.61,152.53C425.11,151.53,424.11,151.53,423.61,152.53z"/>
		<path class="st0" d="M411.64,161c0,1,0,1.5,0,2.49c0,7.98,0,16.45,0,24.43c0,1.5,1,2.49,2.49,2.49c7.98,0,16.45,0,24.43,0
			c1.5,0,2.49-1,1.5-1.5c0-3.99,0-7.98,0-11.97c0-1,1-1.5,1-2.49c6.48-3.99,12.46-8.48,18.95-12.46h1c0,1,0,1,0,1
			c0,8.48,0,17.45,0,24.93c0,1.5,1,2.49,2.49,2.49c5.48,0,11.97,0,17.45,0c1.5,0,2.49,1,2.49,2.49c0,3.99,0,9.47,0,13.46
			c0,1.5-1,1.5-1.5,1.5c-5.48,0-12.46,0-17.95,0c-1.5,0-1.5,1-1.5,1.5c0,12.46,0,23.43,0,36.4c0,1,0,1,0,1
			c0,6.98,4.49,9.47,10.97,8.48c2.49-1,3.99-1,6.98-2.49c1,1.5,1.5,2.99,2.49,5.48c1.5,2.99,2.49,6.98,3.99,9.97c1,1,1,1.5-1,2.49
			c-6.48,2.49-12.46,3.99-19.45,2.99c-2.99-1-6.48-1-9.47-1.5c-6.98-2.49-10.97-7.98-12.46-14.96c-1-2.99-1-6.48-1-9.47
			c0-12.46,0-24.93,0-38.39c0-1.5-1-2.49-2.49-2.49c-7.98,0-15.95,0-23.43,0c-1.5,0-2.49,1-2.49,2.49c0,12.46,0,23.43,0,36.4
			c0,1,0,2.49,1,3.99c1,3.99,5.48,6.98,10.97,5.48c2.49-1,3.99-1,6.98-2.49c1,2.99,2.49,6.48,3.99,9.47c1,2.49,1.5,3.99,2.49,5.48
			c1,1,1,1.5-1,2.49c-6.48,2.49-12.46,3.99-19.45,2.99c-2.99,0-6.48-1-9.47-1.5c-6.98-2.49-10.97-7.98-12.46-14.96
			c-1-2.49-1-5.48-1-8.48c0-12.46,0-25.93,0-38.39c0-2.49,0-2.49-2.49-2.49c-2.49,0-5.48,0-8.48,0c-1,0-1.5-1-1.5-1.5
			c0-4.49,0-9.47,0-13.96c0-1,1-1.5,1.5-1.5c2.99,0,6.48,0,9.47,0c1,0,1.5-1,1.5-1.5c0-3.99,0-7.98,0-11.97c0-1,1-1.5,1-2.49
			c5.48-3.99,12.46-8.48,17.95-12.46C410.65,161,410.65,161,411.64,161z"/>
		<path class="st0" d="M340.84,271.19c-2.49,0-3.99,0-6.48,0c-5.48,0-10.97,0-17.45,0c-1,0-2.49-1-2.49-1.5
			c-7.98-11.97-15.95-22.94-23.43-34.4c-1-1-1-1-1-1.5c0,1,0,1.5,0,2.49c0,10.97,0,21.94,0,33.9c0,1.5-1,2.49-2.49,2.49
			c-5.48,0-10.97,0-16.45,0c-1.5,0-2.49-1-2.49-2.49c0-19.44,0-38.39,0-58.33c0-13.96,0-28.92,0-43.38c0-1.5,1-2.49,1.5-2.99
			c5.48-3.99,10.97-7.98,17.45-11.97c1-1,1-1,2.49-1.5c0,22.93,0,45.37,0,67.81h1c1-1,1-1,1-1c6.98-9.47,15.95-17.45,22.93-26.92
			c1-1,2.49-1.5,2.99-1.5c7.98,0,15.95,0,23.43,0c-1,1-2.49,2.49-2.49,2.99c-9.47,9.97-18.95,20.44-28.42,30.41
			c-1.5,1.5-1.5,1.5,0,3.99c9.97,13.96,19.45,28.42,29.92,41.88C340.84,270.19,340.84,270.19,340.84,271.19z"/>
		<path class="st0" d="M135.92,238.28c0,2.49,1,4.49,2.49,6.98c2.49,4.49,6.98,7.98,12.46,9.47c9.47,2.49,17.45,1,25.93-2.49
			c1.5-1,2.49-1,2.49,1c1.5,4.49,3.99,9.47,5.48,13.46c1,1,1,1.5-1,2.49c-4.49,2.49-9.97,2.99-15.95,3.99c-8.48,1-17.45,1-24.93-1
			c-14.96-3.99-23.43-13.46-27.42-28.92c-2.49-12.46-1.5-23.43,3.99-35.4c5.48-10.97,14.96-17.95,27.42-19.44
			c6.98-1,15.95-1,21.94,2.49c8.48,3.99,13.46,10.97,15.95,20.44c2.49,8.48,2.49,17.45,1.5,25.93c0,1.5-1,1.5-2.49,1.5
			c-15.95,0-31.41,0-47.37,0C137.42,238.28,135.92,238.28,135.92,238.28z M151.38,223.33c4.49,0,9.47,0,14.96,0c1.5,0,1.5-1,1.5-1.5
			c-1-2.49-1-3.99-1-6.48c-3.99-12.46-17.45-12.46-23.43-7.98c-4.49,3.99-6.48,8.48-6.98,13.96c-1,1.5,0,2.49,1.5,2.49
			C141.91,223.33,146.89,223.33,151.38,223.33z"/>
		<path class="st0" d="M253.59,250.75c1,2.99,2.49,6.48,3.99,9.47c1,2.49,1.5,3.99,2.49,6.48c1,1,0,1.5-1,2.49
			c-5.48,2.49-11.97,3.99-17.45,3.99c-6.98,1-13.96,0-20.44-2.49c-13.46-3.99-21.44-13.46-24.43-26.92
			c-2.99-13.46-2.49-25.93,3.99-37.89c5.48-10.97,15.95-16.45,27.42-17.95c9.47-1.5,18.95-1,28.92,2.99c3.99,1,3.99,1,2.49,4.49
			c-1.5,4.49-3.99,9.47-5.48,13.96c-2.49-1-3.99-1.5-5.48-2.49c-6.98-2.49-14.96-2.49-21.94,1c-5.48,2.99-9.47,8.48-9.97,14.96
			c-1.5,6.98-1,15.95,2.49,21.94c2.99,5.48,7.98,8.48,13.96,9.47c6.98,1,13.46,0,18.95-2.99
			C253.09,251.25,253.59,251.25,253.59,250.75z"/>
		<path class="st0" d="M109,208.87c-2.49-1-3.99-1-6.48-1c-9.47-1-16.45,4.49-17.45,13.96c-1,2.99-1,6.98-1,9.97
			c0,12.46,0,24.43,0,36.9c0,2.99,0,2.49-2.49,2.49c-5.48,0-9.97,0-15.95,0c-1.5,0-2.49-1-2.49-2.49c0-25.93,0-51.85,0-77.78
			c0-1.5,1-2.49,1.5-2.49c5.48,0,10.97,0,16.45,0c1.5,0,1.5,1,1.5,1.5c0,2.49,0,4.49,0,6.98c0,1,0,1,1,2.49c0-1,1-1,1-1
			c2.99-6.48,7.98-10.97,15.95-10.97c5.48-1,10.97,0,16.45,2.49c1,1,1.5,1,1,1.5C114.49,197.9,111.99,203.38,109,208.87z"/>
		<path class="st0" d="M350.32,230.31c0-12.46,0-24.93,0-38.39c0-2.49,0-2.49,2.49-2.49c5.48,0,10.97,0,15.95,0
			c1.5,0,2.49,1,2.49,2.49c0,12.46,0,25.93,0,38.39c0,12.46,0,24.93,0,38.39c0,2.49,0,2.49-2.49,2.49c-5.48,0-10.97,0-15.95,0
			c-1.5,0-2.49-1-2.49-2.49C350.32,256.23,350.32,243.77,350.32,230.31z"/>
		<path class="st0" d="M373.25,167.48c0,6.98-5.48,12.46-12.46,12.46s-12.46-5.48-12.46-12.46s5.48-12.46,12.46-12.46
			S373.25,160,373.25,167.48z"/>
	</g>
</g>
</svg>
