<?xml version="1.0" encoding="utf-8"?>
<!-- Generator: Adobe Illustrator 27.3.1, SVG Export Plug-In . SVG Version: 6.00 Build 0)  -->
<svg version="1.1" id="Layer_1" xmlns="http://www.w3.org/2000/svg" xmlns:xlink="http://www.w3.org/1999/xlink" x="0px" y="0px"
	 viewBox="0 0 656.18 275.58" style="enable-background:new 0 0 656.18 275.58;" xml:space="preserve">
<style type="text/css">
	.st0{fill:#FFFFFF;}
</style>
<g>
	<polyline id="polyline3" class="st0" points="357.14,189.77 441.53,189.77 441.53,179.37 371.2,179.37 371.2,145.74 424.41,145.74 
		424.41,135.34 371.2,135.34 371.2,105.38 441.53,105.38 441.53,94.98 357.14,94.98 357.14,189.77 	"/>
	<polyline id="polyline5" class="st0" points="401.17,79.69 389.55,92.53 425.63,79.69 401.17,79.69 	"/>
	<polyline id="polyline7" class="st0" points="584.02,179.37 584.02,94.98 570.56,94.98 570.56,189.77 656.18,189.77 656.18,179.37 
		584.02,179.37 	"/>
	<path id="path9" class="st0" d="M496.57,94.98l-48.31,94.79h16.51L477,165.31h57.48l12.23,24.46h15.9L514.3,94.98H496.57
		 M483.11,153.08l22.63-45.25l23.24,45.25H483.11z"/>
	<path id="path11" class="st0" d="M310.66,150.02c22.02-6.12,23.85-22.02,23.85-27.52c-1.22-17.12-12.84-27.52-33.02-27.52h-59.93
		v94.79h13.45v-39.75h39.14l28.74,39.75h17.12C340.01,189.77,319.22,162.86,310.66,150.02 M299.65,138.4h-44.03v-32.41h45.87
		c10.4,0,16.51,4.89,18.35,11.01c1.22,4.28,0.61,9.78-1.83,13.45C314.33,137.18,306.99,138.4,299.65,138.4z"/>
	<path id="path13" class="st0" d="M160.22,78.47c-38.53,0-64.82,26.91-64.82,59.93c0,34.25,28.74,58.71,64.82,58.71
		c35.47,0,64.82-23.85,64.82-58.71C224.43,105.99,198.14,78.47,160.22,78.47 M159.61,185.49c-26.3,0-48.31-21.4-48.31-47.09
		s20.79-48.31,49.53-48.31c28.13,0,48.31,22.63,48.31,48.31C209.15,164.7,185.91,185.49,159.61,185.49z"/>
	<polyline id="polyline15" class="st0" points="61.15,128 70.94,128 88.67,94.98 74.61,94.98 61.15,128 	"/>
	<polyline id="polyline17" class="st0" points="12.84,179.37 12.84,94.98 0,94.98 0,189.77 85.62,189.77 85.62,179.37 12.84,179.37 
			"/>
</g>
</svg>
