<?xml version="1.0" encoding="utf-8"?>
<!-- Generator: Adobe Illustrator 27.3.1, SVG Export Plug-In . SVG Version: 6.00 Build 0)  -->
<svg version="1.1" id="Layer_1" xmlns="http://www.w3.org/2000/svg" xmlns:xlink="http://www.w3.org/1999/xlink" x="0px" y="0px"
	 viewBox="0 0 100.17 43.02" style="enable-background:new 0 0 100.17 43.02;" xml:space="preserve">
<style type="text/css">
	.st0{fill:#FFFFFF;}
</style>
<g>
	<g>
		<path class="st0" d="M48.98,20.6c0-0.1-0.1-0.2-0.1-0.3c-0.1-0.4-0.2-0.71-0.4-1.11c-1.92-5.96-3.94-11.92-5.86-17.87
			c-0.1-0.4-0.3-0.81-0.4-1.21l0,0l0,0h-0.1c-0.1,0-0.1,0-0.2,0c-7.27,0-14.54,0-21.91,0c-6.56,0-13.13,0-19.59,0
			c-0.1,0-0.2,0-0.3,0H0c0,0.1,0,0.2,0,0.3C0,6.97,0,13.53,0,20.2c0,0.1,0,0.2,0,0.3c0.1,0,0.2,0,0.3,0c16.16,0,32.31,0,48.37,0h0.3
			V20.6z M15.25,11.92c-0.5,0.1-1.01,0.2-1.51,0.3v4.85c-0.3,0.1-0.5,0.2-0.81,0.2c-1.51,0.4-3.03,0.4-4.54,0.2
			c-1.11-0.2-2.12-0.61-2.93-1.51c-0.71-0.71-1.11-1.51-1.31-2.52c-0.2-0.91-0.3-1.92-0.3-2.83c0-0.91,0.1-1.92,0.4-2.83
			c0.71-2.22,2.22-3.43,4.44-3.84c0.81-0.1,1.62-0.1,2.42-0.1s1.62,0.1,2.42,0.3c0,0,0.1,0,0.2,0c0,1.01,0.1,2.02,0.1,3.13h-0.61
			c-0.1-0.61-0.3-1.11-0.4-1.72c0-0.2-0.1-0.3-0.1-0.5c0-0.1-0.1-0.2-0.2-0.3c-0.4-0.1-0.81-0.2-1.11-0.3c-0.81-0.1-1.62-0.2-2.42,0
			c-1.51,0.3-2.52,1.11-3.03,2.52c-0.3,0.71-0.4,1.31-0.5,2.02c-0.1,1.11-0.1,2.22,0,3.43c0.1,0.71,0.3,1.31,0.61,2.02
			c0.61,1.41,1.72,2.22,3.23,2.42c1.01,0.1,2.02,0,3.03-0.2c0.1,0,0.1,0,0.2-0.1v-4.44c-0.61-0.1-1.21-0.2-1.82-0.3v-0.4h4.65v0.5
			H15.25z M30.19,17.37h-4.65v-0.5c0.5-0.1,1.11-0.2,1.62-0.3V4.95l0,0l0,0c-1.31,3.94-2.63,7.98-4.04,11.92h-0.81
			c-1.41-4.04-2.83-7.98-4.24-12.02c0,0,0,0-0.1,0s0,0,0,0l0,0c0,3.84,0,7.67,0,11.51v0.1c0.5,0.1,1.01,0.2,1.62,0.3v0.5h-4.14v-0.5
			c0.61-0.1,1.11-0.2,1.72-0.3V4.65c-0.61-0.1-1.11-0.2-1.72-0.3v-0.4h3.64c1.31,3.64,2.52,7.27,3.84,10.91c0,0,0,0,0.1,0
			c0.3-0.71,0.5-1.41,0.71-2.12c0.3-0.71,0.5-1.51,0.71-2.22s0.5-1.51,0.71-2.22c0.2-0.71,0.5-1.51,0.71-2.22
			c0.2-0.71,0.5-1.41,0.71-2.22h3.53v0.4c-0.61,0.1-1.11,0.2-1.72,0.3v11.81c0.5,0.1,1.11,0.2,1.72,0.3v0.71H30.19z M41.5,11.92
			c-0.5,0.1-0.91,0.2-1.41,0.3v4.85c-0.4,0.2-0.91,0.3-1.31,0.4c-1.11,0.2-2.22,0.3-3.33,0.2c-0.61-0.1-1.31-0.2-1.92-0.4
			c-1.51-0.61-2.42-1.72-2.93-3.23c-0.4-1.21-0.5-2.42-0.4-3.74c0-0.91,0.2-1.82,0.5-2.73c0.81-2.02,2.32-3.13,4.34-3.53
			c0.71-0.1,1.51-0.1,2.22-0.1c0.91,0,1.72,0.1,2.63,0.4c0.1,0,0.1,0,0.2,0.1c0,1.01,0.1,2.02,0.1,3.13c-0.1,0-0.1,0-0.1,0
			c-0.1,0-0.3,0-0.5,0c-0.2-0.81-0.4-1.62-0.5-2.42c-0.3-0.2-0.61-0.2-1.01-0.3c-0.91-0.2-1.82-0.2-2.73-0.1
			c-1.51,0.3-2.52,1.21-3.13,2.63c-0.3,0.71-0.4,1.51-0.5,2.32c-0.1,1.11-0.1,2.12,0.1,3.23c0.1,0.81,0.4,1.62,0.81,2.42
			c0.61,1.01,1.51,1.62,2.63,1.82c1.21,0.2,2.42,0.1,3.53-0.2c0,0,0,0,0.1,0v-4.44c-0.61-0.1-1.21-0.2-1.82-0.3v-0.81h4.65v0.5H41.5
			z"/>
		<path class="st0" d="M19.99,0.1c7.27,0,14.54,0,21.91,0c0.1,0,0.1,0,0.2,0h0.1c0,0,0,0,0-0.1H0.2C0.1,0,0.1,0,0,0c0,0,0,0,0,0.1
			h0.1h0.1c0.1,0,0.2,0,0.3,0C6.87,0.1,13.43,0.1,19.99,0.1z"/>
		<path class="st0" d="M46.35,31.91c-0.3-0.61-0.81-1.11-1.41-1.21c-0.3-0.1-0.61-0.1-0.81-0.1c-0.81,0-1.51,0.3-1.92,1.01
			c-0.5,0.81-0.71,1.72-0.81,2.63c1.82,0,3.64-0.1,5.35-0.1c0-0.2,0-0.4,0-0.5C46.75,33.02,46.65,32.41,46.35,31.91z"/>
		<path class="st0" d="M85.03,30.6c-1.21-0.1-2.22,0.3-2.83,1.51c-0.2,0.5-0.3,1.01-0.4,1.62c0,0.1,0,0.3,0,0.5
			c1.82,0,3.64-0.1,5.45-0.1c0-0.61,0-1.21-0.2-1.82C86.64,31.3,86.04,30.7,85.03,30.6z"/>
		<path class="st0" d="M99.77,23.23c-25.25,0-50.49,0-75.63,0c-0.1,0-0.1,0-0.2,0c-0.1,0-0.1,0-0.2,0c0,0.1,0,0.2,0.1,0.2
			c1.21,3.64,2.42,7.27,3.74,10.91c1.01,2.83,1.92,5.65,2.93,8.48c0,0.1,0,0.1,0,0.2h0.1c0,0,0.1,0,0.1-0.1c0.1,0,0.2,0,0.2,0
			c23.12,0,46.15,0,69.27,0V23.12C100.07,23.23,99.87,23.23,99.77,23.23z M36.96,39.69v0.1h-0.91c-0.1-0.2-0.1-0.3-0.2-0.5
			c-1.31-3.94-2.63-7.88-3.94-11.81c0-0.1-0.1-0.2-0.3-0.3c-0.3-0.1-0.71-0.2-1.01-0.3v-0.3h4.14c0,0.1,0,0.2,0,0.2
			c0,0.1,0,0.1,0,0.2c-0.5,0.1-1.01,0.2-1.51,0.3c1.11,3.53,2.32,7.17,3.43,10.7c0,0,0,0,0.1,0c1.11-3.53,2.32-7.17,3.43-10.7
			c-0.5-0.1-1.01-0.2-1.51-0.3v-0.4h3.53v0.5c-0.3,0.1-0.61,0.2-1.01,0.2c-0.2,0-0.3,0.1-0.3,0.3c-1.11,3.33-2.22,6.77-3.33,10.1
			C37.36,38.37,37.16,38.98,36.96,39.69z M48.07,34.84H41.3c0,0.3,0,0.5,0,0.71c0.1,0.61,0.2,1.21,0.4,1.72
			c0.5,1.11,1.31,1.72,2.52,1.82c1.21,0.1,2.22-0.1,3.33-0.81c0,0.2,0,0.4,0,0.61c0,0.1-0.1,0.1-0.1,0.2
			c-0.4,0.3-0.81,0.5-1.31,0.61c-0.91,0.2-1.92,0.3-2.83,0.1c-1.21-0.3-2.12-1.01-2.73-2.12c-0.61-1.41-0.81-3.74-0.1-5.25
			c0.5-1.21,1.31-2.02,2.52-2.42c0.91-0.3,1.82-0.2,2.63,0.1c0.81,0.3,1.41,0.91,1.82,1.72C47.97,32.82,48.17,33.83,48.07,34.84
			C48.17,34.84,48.07,34.84,48.07,34.84z M58.47,39.79h-3.94c0-0.1,0-0.1,0-0.2s0-0.2,0-0.2c0.5-0.1,0.91-0.1,1.41-0.2
			c0-0.1,0-0.2,0-0.2c0-2.12,0-4.14,0-6.26c0-0.2,0-0.4,0-0.61c-0.1-0.71-0.61-1.21-1.31-1.31c-0.71-0.1-1.41,0-2.02,0.2
			c-0.4,0.1-0.91,0.3-1.31,0.5v7.67c0.4,0.1,0.91,0.1,1.31,0.2v0.4h-3.94v-0.4c0.5-0.1,0.91-0.2,1.41-0.2V31
			c-0.5-0.1-0.91-0.1-1.41-0.2v-0.4c0.3,0,0.61-0.1,0.91-0.1c0.4-0.1,0.81-0.1,1.21-0.2c0.3,0,0.4,0,0.4,0.3c0,0.2,0,0.3,0,0.5
			c0,0,0,0,0,0.1c0.1,0,0.2-0.1,0.3-0.1c0.61-0.3,1.31-0.61,2.02-0.71c0.71-0.2,1.41-0.1,2.12,0c0.91,0.2,1.41,0.81,1.51,1.72
			c0,0.3,0.1,0.5,0.1,0.81c0,2.12,0,4.24,0,6.36v0.3c0.5,0.1,0.91,0.2,1.41,0.2v0.2H58.47z M63.42,39.48c-0.3,0.2-0.71,0.3-1.11,0.4
			c-0.61,0.1-1.21,0.1-1.82,0c-0.81-0.2-1.21-0.71-1.31-1.41c0-0.2,0-0.5,0-0.71c0-2.22,0-4.44,0-6.56v-0.3h-1.41v-0.4
			c0.4-0.1,0.91-0.2,1.31-0.3v-2.22c0.4-0.1,0.81-0.1,1.21-0.2v2.42c0.3,0,0.61,0,1.01,0c0.3,0,0.61,0,0.91,0h1.01v0.71h-2.93v0.3
			c0,2.22,0,4.34,0,6.56c0,0.2,0,0.5,0.1,0.71c0.1,0.4,0.3,0.61,0.71,0.71c0.4,0.1,0.81,0.2,1.21,0.1c0.4,0,0.71-0.1,1.11-0.1V39.48
			z M73.92,39.58c-0.3,0.1-0.61,0.1-0.91,0.2c-0.4,0.1-0.81,0.1-1.21,0.2c-0.1,0-0.2,0-0.4-0.1v-0.91c-0.1,0.1-0.2,0.1-0.3,0.1
			c-0.61,0.3-1.31,0.61-2.02,0.71c-0.71,0.1-1.41,0.1-2.12,0c-0.91-0.2-1.41-0.81-1.51-1.72c0-0.3-0.1-0.61-0.1-0.81
			c0-2.02,0-4.14,0-6.16v-0.3c-0.5-0.1-1.01-0.2-1.41-0.2v-0.4c0.2,0,0.5,0,0.71-0.1c0.5,0,1.01-0.1,1.51-0.1c0.1,0,0.1,0,0.2,0
			c0.1,0,0.2,0.1,0.2,0.3c0,0.61,0,1.21,0,1.72c0,1.72,0,3.33,0,5.05c0,0.3,0,0.61,0.1,0.91c0.1,0.5,0.5,0.91,1.01,1.01
			c0.4,0.1,0.91,0.1,1.31,0.1c0.81-0.1,1.51-0.3,2.32-0.61c0,0,0,0,0.1-0.1V30.8c-0.5-0.1-0.91-0.1-1.41-0.2v-0.4
			c0.2,0,0.4,0,0.71-0.1c0.5,0,1.01-0.1,1.51-0.1h0.1c0.2,0,0.3,0.1,0.3,0.3c0,0.1,0,0.1,0,0.2v8.18v0.3c0.5,0.1,0.91,0.2,1.31,0.2
			L73.92,39.58L73.92,39.58z M80.48,31c-0.5-0.1-1.01-0.1-1.41,0c-0.61,0.1-1.21,0.3-1.62,0.71c-0.1,0.1-0.1,0.2-0.1,0.3
			c0,2.32,0,4.65,0,6.97c0,0,0,0.1,0,0.2c0.5,0.1,1.01,0.2,1.62,0.2v0.4h-4.24v-0.4c0.5-0.1,0.91-0.2,1.41-0.2V31
			c-0.5-0.1-0.91-0.1-1.41-0.2v-0.4c0.3,0,0.61-0.1,1.01-0.1c0.4-0.1,0.81-0.1,1.21-0.2c0.3,0,0.4,0,0.4,0.3c0,0.2,0,0.5,0,0.71
			c0,0,0,0.1,0,0.2c0.2-0.2,0.4-0.4,0.5-0.5c0.2-0.2,0.4-0.3,0.61-0.4c0.2-0.1,0.4-0.2,0.61-0.3c0.2-0.1,0.5-0.1,0.71-0.1
			s0.5,0,0.71,0V31z M88.56,34.84h-6.77c0,0.1,0,0.2,0,0.2c0,0.81,0.1,1.51,0.5,2.32c0.5,1.11,1.31,1.72,2.52,1.82
			c1.11,0.1,2.22-0.1,3.13-0.71c0,0,0,0,0.1,0c0,0,0,0,0.1,0c0,0.2,0,0.4,0,0.61c0,0.1-0.1,0.1-0.1,0.2c-0.3,0.2-0.61,0.4-1.01,0.5
			c-1.11,0.4-2.32,0.4-3.43,0.1c-1.11-0.3-2.02-1.01-2.42-2.12c-0.71-1.62-0.71-3.33-0.2-4.95c0.4-1.21,1.21-2.12,2.52-2.52
			c0.91-0.3,1.92-0.3,2.83,0c0.91,0.3,1.51,1.01,1.92,2.02C88.46,33.02,88.56,33.83,88.56,34.84
			C88.56,34.74,88.56,34.84,88.56,34.84z M95.83,37.97c-0.2,0.81-0.71,1.31-1.41,1.72c-0.61,0.3-1.21,0.4-1.82,0.4
			c-1.01,0-1.92-0.2-2.93-0.5c0,0-0.1,0-0.1-0.1c-0.1-0.71-0.1-1.51-0.2-2.22h0.61c0.1,0.3,0.2,0.61,0.3,0.81
			c0.1,0.2,0.1,0.4,0.2,0.71c0,0.1,0.1,0.2,0.2,0.2c0.91,0.4,1.92,0.5,2.93,0.2c0.71-0.2,1.11-0.61,1.31-1.31
			c0.2-0.81-0.1-1.41-0.71-1.82c-0.3-0.2-0.71-0.3-1.01-0.5c-0.5-0.2-1.01-0.3-1.51-0.5c-0.3-0.1-0.61-0.3-0.81-0.4
			c-1.51-0.91-1.41-3.23-0.1-4.04c0.5-0.4,1.11-0.61,1.82-0.61c1.01-0.1,1.92,0,2.83,0.3c0,0,0,0,0.1,0v2.02h-0.5
			c-0.1-0.4-0.2-0.91-0.3-1.31c0-0.1-0.1-0.2-0.2-0.2c-0.81-0.2-1.62-0.3-2.52,0c-0.5,0.2-0.91,0.5-1.11,1.11
			c-0.2,0.71,0,1.31,0.61,1.72c0.4,0.3,0.81,0.4,1.31,0.61c0.4,0.1,0.81,0.3,1.21,0.4c0.3,0.1,0.61,0.2,0.91,0.4
			c0.71,0.4,1.11,1.11,1.21,1.92C95.93,37.26,95.93,37.67,95.83,37.97z"/>
	</g>
</g>
</svg>
