<?xml version="1.0" encoding="utf-8"?>
<!-- Generator: Adobe Illustrator 27.3.1, SVG Export Plug-In . SVG Version: 6.00 Build 0)  -->
<svg version="1.1" id="Layer_1" xmlns="http://www.w3.org/2000/svg" xmlns:xlink="http://www.w3.org/1999/xlink" x="0px" y="0px"
	 viewBox="0 0 117.24 25.25" style="enable-background:new 0 0 117.24 25.25;" xml:space="preserve">
<style type="text/css">
	.st0{fill:#FFFFFF;}
</style>
<g id="Partners">
	<g id="Our-partners-_x28_Desktop_x2C_-HD_x29_" transform="translate(-842.000000, -2325.000000)">
		<g id="Image-2" transform="translate(842.000000, 2325.000000)">
			<g>
				<path class="st0" d="M117.24,15.35c-0.5,0-0.91,0-1.41,0c-0.1,0-0.2,0-0.3-0.2c-0.5-0.61-0.91-1.31-1.41-1.92
					c-0.5-0.71-1.11-1.51-1.62-2.22c-0.2-0.3-0.4-0.5-0.61-0.81l-0.1-0.1c-0.2,0.1-0.3,0.2-0.4,0.4c-0.4,0.3-0.81,0.71-1.21,1.01
					l0,0c-0.2,0.1-0.2,0.2-0.2,0.4c0,0.5,0,1.11,0,1.62s0,1.01,0,1.62c0,0.2,0,0.3-0.3,0.3s-0.61,0-0.91,0c-0.2,0-0.2,0-0.2-0.2
					v-0.1c0-4.34,0-8.68,0-12.93c0-0.3,0-0.3,0.3-0.3c0.3,0,0.61,0,0.81,0s0.2,0,0.2,0.2c0,0.1,0,0.1,0,0.2c0,2.63,0,5.15,0,7.78
					c0,0.1,0,0.1,0,0.2c0.1,0,0.1,0,0.2-0.1c0.2-0.2,0.4-0.4,0.61-0.5c0.4-0.4,0.81-0.71,1.21-1.11c0.4-0.3,0.81-0.71,1.21-1.01
					c0.4-0.4,0.81-0.71,1.21-1.11c0.2-0.2,0.4-0.4,0.61-0.61c0.1-0.1,0.1-0.1,0.2-0.1c0.5,0,1.01,0,1.51,0h0.1c0,0,0,0.1-0.1,0.1
					c-0.5,0.4-0.91,0.81-1.41,1.21c-0.4,0.3-0.81,0.71-1.11,1.01c-0.5,0.4-0.91,0.81-1.41,1.21c-0.1,0.1-0.1,0.1,0,0.2
					C114.41,11.31,115.83,13.33,117.24,15.35C117.24,15.25,117.24,15.35,117.24,15.35L117.24,15.35z"/>
				<path class="st0" d="M60.59,25.14c-0.1,0-0.2-0.1-0.2-0.1c-0.3-0.1-0.61-0.2-0.91-0.4c-0.1-0.1-0.1-0.1-0.1-0.2
					c0.1-0.1,0.1-0.2,0.2-0.3c0.1,0,0.1,0.1,0.2,0.1c0.5,0.3,1.01,0.4,1.62,0.3c0.5-0.1,0.81-0.5,0.81-1.01c0-0.1,0-0.2,0-0.3
					c0,0,0,0,0-0.1l-0.1,0.1c-0.71,0.71-1.82,0.61-2.42,0c-0.5-0.5-0.61-1.01-0.4-1.72c0.3-1.11,1.62-1.62,2.52-1.01
					c0.1,0.1,0.3,0.2,0.4,0.3v-0.1c0-0.1,0-0.1,0-0.2c0-0.1,0-0.2,0.2-0.2c0.1,0,0.2,0,0.3,0s0.1,0,0.1,0.2c0,0,0,0,0,0.1
					c0,0.91,0,1.92,0,2.83c0,0.3-0.1,0.61-0.3,0.91c-0.2,0.3-0.5,0.5-0.91,0.61c-0.1,0-0.2,0.1-0.3,0.1
					C61.09,25.14,60.79,25.14,60.59,25.14z M59.78,22.01c0,0.4,0.1,0.71,0.4,0.91c0.5,0.4,1.21,0.3,1.62-0.2
					c0.4-0.4,0.4-1.11,0-1.51c-0.2-0.2-0.5-0.4-0.81-0.4C60.39,20.8,59.78,21.31,59.78,22.01z"/>
				<path class="st0" d="M82.91,25.14c0-1.51,0-2.93,0-4.44c0-0.3,0-0.3,0.3-0.3s0.3,0,0.3,0.3c0,0.1,0,0.1,0,0.2
					c0.1,0,0.1-0.1,0.1-0.1c0.5-0.61,1.41-0.71,2.02-0.3c0.61,0.3,0.81,0.81,0.91,1.51c0,0.3,0,0.71-0.1,1.01
					c-0.3,0.71-0.81,1.01-1.51,1.11c-0.4,0-0.81-0.1-1.21-0.4l-0.1-0.1c0,0.3,0,0.5,0,0.81s0,0.5,0,0.81
					C83.31,25.14,83.11,25.14,82.91,25.14z M83.51,22.22c0,0.5,0.2,0.91,0.5,1.11c0.61,0.4,1.41,0.3,1.72-0.4
					c0.2-0.4,0.2-0.81,0-1.21c-0.3-0.81-1.31-1.01-1.92-0.4C83.61,21.51,83.51,21.91,83.51,22.22z"/>
				<path class="st0" d="M0.2,16.96C0.2,16.96,0.1,16.96,0.2,16.96c-0.1-1.51-0.1-3.13-0.1-4.65l0,0c0,1.51,0,3.03,0,4.44
					C0.2,16.86,0.2,16.86,0.2,16.96z"/>
				<path class="st0" d="M0.1,6.16C0.1,6.16,0.2,6.16,0.1,6.16c0.1,0.1,0,0.2,0,0.2c0,1.31,0,2.63,0,4.04c0,0.1,0,0.1,0,0.2
					c0,0,0,0-0.1,0C0.1,9.19,0.1,7.67,0.1,6.16z"/>
				<path class="st0" d="M0.2,16.96c0-0.1,0-0.1,0-0.2c0-1.51,0-3.03,0-4.44c0.2-0.2,0.3-0.4,0.5-0.61c0.2-0.2,0.4-0.4,0.61-0.71
					C1.92,10.4,2.52,9.8,3.23,9.29c0.71-0.5,1.41-0.91,2.22-1.21c0.3-0.1,0.61-0.2,0.91-0.2c0.5,0,1.01,0.1,1.41,0.4
					c0.2,0.2,0.4,0.5,0.5,0.71c0.1,0.4,0.2,0.71,0.2,1.11c0,0.2,0,0.5,0,0.71c0,0.1,0,0.3,0.1,0.4c0.1,0.3,0.3,0.4,0.61,0.3
					c0.2-0.1,0.4-0.2,0.61-0.3c0.4-0.3,0.81-0.71,1.21-1.01c0.5-0.4,1.01-0.91,1.62-1.31c0.5-0.3,1.01-0.5,1.62-0.61
					c0.5-0.1,1.01-0.1,1.41,0.1c0.5,0.2,0.91,0.5,1.21,1.01s0.5,1.11,0.61,1.62c0,0.3,0.1,0.71,0.1,1.01c0,1.11,0,2.32,0,3.43
					c0,0.1,0,0.1,0,0.2c-0.1,0-0.1-0.1-0.1-0.2c-0.1-0.4-0.2-0.71-0.3-1.01c-0.3-0.71-0.81-1.21-1.51-1.51c-0.5-0.2-1.11-0.2-1.62,0
					c-0.61,0.1-1.11,0.4-1.62,0.71c-0.4,0.3-0.71,0.61-1.01,0.81c-0.5,0.4-0.91,0.81-1.41,1.21c-0.2,0.2-0.4,0.3-0.71,0.4
					c-0.1,0-0.2,0-0.3,0c-0.1,0-0.2-0.1-0.3-0.3c-0.1-0.2-0.1-0.5-0.1-0.71c0-0.4,0-0.81-0.1-1.21c-0.1-0.3-0.2-0.71-0.5-0.91
					c-0.2-0.3-0.5-0.4-0.81-0.5c-0.5-0.1-1.01-0.1-1.41,0.1c-0.71,0.2-1.31,0.5-1.82,0.91c-0.61,0.4-1.21,0.91-1.82,1.41
					C1.31,15.65,0.81,16.26,0.2,16.96L0.2,16.96z"/>
				<path class="st0" d="M0.2,10.6c0-0.1,0-0.1,0-0.2c0-1.31,0-2.63,0-4.04c0-0.1,0-0.2,0-0.2c0.5-0.71,1.11-1.31,1.82-1.92
					c0.71-0.71,1.51-1.31,2.42-1.82c0.5-0.3,1.01-0.5,1.62-0.61c0.5-0.1,0.91-0.1,1.31,0.2c0.4,0.2,0.61,0.5,0.81,0.91
					c0.2,0.4,0.2,0.81,0.3,1.21c0,0.2,0,0.5,0,0.71c0,0.1,0,0.3,0.1,0.4c0.1,0.2,0.3,0.3,0.5,0.3c0.2-0.1,0.4-0.2,0.61-0.3
					c0.4-0.3,0.71-0.61,1.11-0.91c0.4-0.4,0.81-0.81,1.31-1.11c0.61-0.5,1.31-0.81,2.12-0.91c0.71-0.1,1.41,0,2.02,0.5
					c0.3,0.3,0.61,0.61,0.71,1.01c0.2,0.5,0.3,1.01,0.4,1.62c0,0.3,0,0.5,0,0.81c0,1.11,0,2.22,0,3.33c0,0.1,0,0.1,0,0.2
					c-0.1,0-0.1-0.1-0.1-0.1c-0.1-0.5-0.2-0.91-0.5-1.31c-0.4-0.71-1.01-1.11-1.72-1.31c-0.5-0.1-1.01,0-1.51,0.1
					c-0.61,0.2-1.11,0.5-1.62,0.91c-0.4,0.3-0.71,0.71-1.11,1.01C10.5,9.39,10.1,9.69,9.8,10c-0.2,0.1-0.3,0.2-0.5,0.3h-0.1
					c-0.3,0.1-0.5,0-0.61-0.3c-0.1-0.2-0.1-0.5-0.1-0.71c0-0.4,0-0.71-0.1-1.01c-0.1-0.4-0.2-0.71-0.5-1.01
					c-0.3-0.3-0.61-0.5-1.01-0.61c-0.5-0.1-0.91,0-1.41,0.1c-0.61,0.2-1.11,0.4-1.72,0.81c-0.71,0.4-1.31,0.91-1.82,1.41
					C1.31,9.39,0.71,10,0.2,10.6z"/>
				<path class="st0" d="M67.76,15.35c0-0.1,0-0.2,0-0.3c0-2.83,0-5.76,0-8.58c0-1.51,0-2.93,0-4.44c0-0.3,0-0.3,0.3-0.3
					c0.3,0,0.5,0,0.81,0c0.2,0,0.2,0,0.2,0.2c0,0.61,0,1.21,0,1.72c0,1.01,0,2.02,0,3.03c0,0.1,0,0.1,0,0.2l0,0
					c0.1-0.1,0.2-0.3,0.3-0.4c0.1-0.1,0.2-0.3,0.4-0.4c0.1-0.1,0.3-0.2,0.4-0.3c0.2-0.1,0.3-0.2,0.5-0.3c0.2-0.1,0.3-0.1,0.5-0.2
					c0.2,0,0.4-0.1,0.5-0.1c0.2,0,0.4,0,0.61,0c0.1,0,0.2,0,0.3,0c0.5,0,1.11,0.1,1.62,0.4c0.4,0.2,0.81,0.4,1.11,0.81
					c0.3,0.3,0.5,0.61,0.71,0.91c0.4,0.71,0.61,1.41,0.71,2.22c0.1,0.5,0.1,0.91,0.1,1.41c-0.1,0.91-0.2,1.72-0.61,2.52
					c-0.3,0.61-0.71,1.01-1.21,1.41c-0.61,0.4-1.21,0.71-1.92,0.71h-0.1c-0.1,0-0.1,0-0.2,0c-0.2,0-0.5,0-0.71,0c-0.1,0-0.1,0-0.2,0
					c-0.3,0-0.61-0.1-0.91-0.2c-0.61-0.2-1.11-0.5-1.51-1.01c-0.2-0.2-0.3-0.4-0.4-0.61l0,0l0,0c0,0.5,0,1.11,0,1.62l0,0
					C68.57,15.35,68.16,15.35,67.76,15.35z M75.53,10.2c0-0.3-0.1-0.81-0.2-1.31c-0.2-0.71-0.5-1.41-1.11-1.82
					c-0.2-0.2-0.4-0.3-0.71-0.4c-0.5-0.2-1.11-0.3-1.72-0.2c-0.71,0.1-1.31,0.4-1.82,0.91c-0.3,0.3-0.5,0.71-0.71,1.11
					c-0.3,0.61-0.3,1.31-0.4,1.92c0,0.4,0,0.81,0.1,1.21c0.1,0.71,0.4,1.31,0.81,1.92c0.3,0.4,0.71,0.71,1.21,0.91
					c0.61,0.2,1.11,0.2,1.72,0.1c0.4-0.1,0.71-0.2,1.01-0.4c0.5-0.4,0.91-0.91,1.21-1.51C75.43,11.92,75.53,11.21,75.53,10.2z"/>
				<path class="st0" d="M29.49,6.97l0.1-0.1c0.3-0.61,0.81-1.01,1.41-1.31c0.71-0.3,1.41-0.4,2.12-0.3c0.2,0,0.5,0.1,0.71,0.1
					c0.5,0.1,1.01,0.3,1.31,0.71c0.3,0.3,0.61,0.61,0.71,1.11c0.1,0.4,0.2,0.71,0.2,1.11c0,0.3,0,0.61,0,0.91c0,2.02,0,3.94,0,5.96
					c0,0.3,0,0.3-0.3,0.3c-0.2,0-0.5,0-0.71,0c-0.3,0-0.3,0-0.3-0.3c0-0.81,0-1.72,0-2.52c0-1.11,0-2.22,0-3.33
					c0-0.4,0-0.71-0.1-1.11c-0.1-0.4-0.2-0.81-0.5-1.11s-0.61-0.5-1.01-0.61c-0.61-0.1-1.21-0.1-1.82,0.1
					c-0.61,0.2-1.11,0.61-1.41,1.21c-0.3,0.61-0.5,1.21-0.5,1.92c0,1.82,0,3.53,0,5.35c0,0.3,0,0.3-0.3,0.3s-0.5,0-0.81,0
					c-0.2,0-0.2,0-0.2-0.2v-0.1c0-4.34,0-8.68,0-12.93c0-0.3,0-0.3,0.3-0.3s0.61,0,0.81,0s0.2,0,0.2,0.2c0,0.4,0,0.81,0,1.21
					c0,1.21,0,2.32,0,3.53C29.49,6.77,29.49,6.87,29.49,6.97L29.49,6.97z"/>
				<path class="st0" d="M37.77,10.4c0-0.91,0.2-1.82,0.61-2.63c0.61-1.31,1.72-2.12,3.13-2.42c0.81-0.2,1.72-0.1,2.52,0.2
					c0.91,0.3,1.72,0.91,2.22,1.72c0.4,0.71,0.71,1.51,0.81,2.32c0.1,0.4,0.1,0.71,0.1,1.11c-0.1,1.11-0.3,2.12-0.91,3.03
					c-0.71,1.01-1.62,1.62-2.93,1.82c-0.81,0.1-1.62,0.1-2.32-0.2c-1.11-0.4-1.92-1.11-2.42-2.12c-0.4-0.71-0.61-1.51-0.61-2.22
					C37.87,10.8,37.77,10.6,37.77,10.4z M45.85,10.5c0-0.2,0-0.5,0-0.71c-0.1-0.71-0.3-1.31-0.61-1.92c-0.3-0.5-0.81-0.91-1.31-1.21
					c-0.61-0.3-1.31-0.3-2.02-0.2c-0.91,0.2-1.62,0.81-2.02,1.51c-0.5,0.91-0.71,1.92-0.61,3.03c0.1,0.5,0.2,1.01,0.4,1.51
					c0.2,0.5,0.5,0.91,1.01,1.31c0.4,0.4,0.91,0.61,1.51,0.61c0.5,0.1,1.01,0,1.41-0.2c0.81-0.3,1.41-0.91,1.82-1.72
					C45.64,11.92,45.85,11.21,45.85,10.5z"/>
				<path class="st0" d="M90.08,6.87L90.08,6.87c0.61-1.01,1.51-1.51,2.52-1.62c0.71-0.1,1.51,0,2.22,0.2
					c0.91,0.3,1.41,0.91,1.72,1.82c0.1,0.5,0.2,1.01,0.2,1.51c0,2.12,0,4.14,0,6.26c0,0.3,0,0.3-0.3,0.3c-0.3,0-0.61,0-0.81,0
					c-0.2,0-0.2,0-0.2-0.2c0-0.1,0-0.1,0-0.2c0-1.92,0-3.74,0-5.65c0-0.5,0-1.01-0.2-1.41c-0.3-1.01-1.01-1.51-2.02-1.51
					c-0.4,0-0.71,0-1.11,0.1c-0.81,0.2-1.31,0.71-1.72,1.31c-0.3,0.61-0.4,1.21-0.4,1.82c0,1.82,0,3.64,0,5.45c0,0.3,0,0.3-0.3,0.3
					c-0.3,0-0.61,0-0.81,0c-0.2,0-0.2,0-0.2-0.2v-0.1c0-3.13,0-6.16,0-9.29c0-0.3,0-0.3,0.3-0.3s0.5,0,0.81,0s0.3,0,0.3,0.3
					c0,0.3,0,0.61,0,0.91C90.08,6.77,90.08,6.87,90.08,6.87L90.08,6.87z"/>
				<path class="st0" d="M98.36,10.4c0-0.81,0.1-1.62,0.4-2.42c0.5-1.11,1.21-1.92,2.32-2.42c0.4-0.2,0.81-0.3,1.31-0.3
					c0.61-0.1,1.11,0,1.62,0.1c0.71,0.2,1.41,0.5,1.92,1.01c0.4,0.4,0.71,0.91,0.81,1.51c0.1,0.2,0.1,0.4,0.1,0.61
					c0,0.2,0,0.2-0.2,0.2c-0.3,0-0.61,0-0.91,0c-0.2,0-0.2,0-0.2-0.2c-0.1-0.3-0.2-0.61-0.3-0.91c-0.2-0.4-0.5-0.71-0.91-0.91
					c-0.3-0.2-0.61-0.3-1.01-0.3c-0.4,0-0.81,0-1.31,0.1c-0.4,0.1-0.81,0.3-1.11,0.61c-0.61,0.5-0.91,1.21-1.21,1.92
					c-0.2,0.61-0.2,1.21-0.2,1.82c0.1,0.91,0.3,1.72,0.81,2.42c0.5,0.71,1.21,1.21,2.22,1.31c1.21,0.1,2.22-0.5,2.83-1.51
					c0.2-0.3,0.3-0.71,0.3-1.11c0-0.2,0-0.2,0.2-0.2c0.3,0,0.61,0,0.91,0c0.1,0,0.2,0,0.2,0.2c-0.1,0.81-0.4,1.62-0.91,2.22
					c-0.61,0.71-1.31,1.21-2.32,1.41c-0.91,0.2-1.72,0.1-2.63-0.2c-0.5-0.2-0.91-0.4-1.31-0.81c-0.71-0.61-1.21-1.51-1.41-2.42
					C98.46,11.61,98.36,11.01,98.36,10.4z"/>
				<path class="st0" d="M64.43,6.66c-0.1,0-0.2,0-0.3,0c-1.72,0-3.53,0-5.25,0c-0.3,0-0.3,0-0.3-0.3c0-0.2,0-0.4,0-0.61
					c0-0.2,0-0.2,0.2-0.2c0.1,0,0.3,0,0.4,0c2.22,0,4.44,0,6.66,0c0.3,0,0.3,0,0.3,0.3c0,0.1,0,0.2,0,0.4s0,0.3-0.1,0.4
					c-0.4,0.5-0.81,1.01-1.21,1.51c-0.4,0.5-0.81,0.91-1.11,1.41c-0.71,0.91-1.51,1.82-2.22,2.73c-0.5,0.61-1.01,1.21-1.51,1.82
					c0,0-0.1,0.1-0.1,0.2h0.1c0.1,0,0.1,0,0.2,0c2.02,0,4.04,0,6.06,0c0.3,0,0.3,0,0.3,0.3c0,0.2,0,0.4,0,0.61c0,0.1,0,0.2-0.2,0.2
					h-0.1c-2.52,0-5.15,0-7.67,0c-0.3,0-0.3,0-0.3-0.3c0-0.2,0-0.4,0-0.61c0-0.1,0-0.2,0.1-0.2c0.71-0.81,1.41-1.72,2.02-2.52
					c1.01-1.21,1.92-2.32,2.93-3.53c0.4-0.5,0.81-0.91,1.11-1.41C64.32,6.77,64.32,6.66,64.43,6.66z"/>
				<path class="st0" d="M56.95,14.34c0,0.1,0,0.1,0,0.1c0,0.3,0,0.61,0,0.81c0,0.1,0,0.1-0.1,0.1c-0.4,0-0.81,0-1.21,0
					c-0.3,0-0.5,0-0.81-0.1c-0.61-0.1-1.01-0.5-1.11-1.21c-0.1-0.3-0.1-0.5-0.1-0.81c0-2.12,0-4.24,0-6.36c0-0.1,0-0.1,0-0.2
					c0-0.2,0-0.2-0.2-0.2c-0.3,0-0.61,0-0.91,0c-0.1,0-0.3,0-0.4,0c-0.1,0-0.2,0-0.2-0.2c0-0.3,0-0.5,0-0.81c0-0.2,0-0.2,0.2-0.2
					c0.3,0,0.71,0,1.01,0c0.1,0,0.2,0,0.3,0c0.2,0,0.2,0,0.2-0.2c0-0.81,0-1.62,0-2.42c0-0.3,0-0.3,0.3-0.3c0.3,0,0.61,0,0.81,0
					s0.2,0,0.2,0.2c0,0.81,0,1.62,0,2.42c0,0.3,0,0.3,0.3,0.3c0.5,0,0.91,0,1.41,0h0.1c0.1,0,0.2,0,0.2,0.2c0,0.3,0,0.5,0,0.81
					c0,0,0,0,0,0.1s0,0.1-0.1,0.1h-0.1c-0.5,0-1.01,0-1.51,0h-0.1c-0.1,0-0.1,0-0.1,0.1v0.1c0,2.12,0,4.24,0,6.26
					c0,0.2,0,0.5,0.1,0.71c0.1,0.2,0.2,0.3,0.4,0.4c0.3,0.1,0.61,0.1,0.91,0.1C56.65,14.34,56.85,14.34,56.95,14.34z"/>
				<path class="st0" d="M79.78,7.57c0.1-0.1,0.1-0.2,0.2-0.3c0.61-1.01,1.51-1.62,2.63-1.82c0.2,0,0.5,0,0.71,0
					c0.1,0,0.1,0,0.1,0.1c0,0.4,0,0.71,0,1.11c0,0,0,0,0,0.1h-0.1c-0.91,0-1.62,0.2-2.32,0.81c-0.5,0.4-0.81,0.91-1.01,1.62
					c-0.1,0.3-0.1,0.71-0.1,1.11c0,1.62,0,3.33,0,4.95c0,0.3,0,0.3-0.3,0.3c-0.3,0-0.61,0-0.81,0s-0.2,0-0.2-0.2v-0.1
					c0-3.03,0-6.16,0-9.19c0-0.3,0-0.3,0.3-0.3c0.2,0,0.4,0,0.61,0c0.2,0,0.2,0,0.2,0.2c0,0.5,0,1.11,0,1.62
					C79.78,7.37,79.78,7.47,79.78,7.57L79.78,7.57z"/>
				<path class="st0" d="M50.09,8.58c0,2.12,0,4.34,0,6.46c0,0.3,0,0.3-0.3,0.3c-0.3,0-0.5,0-0.81,0c-0.2,0-0.2,0-0.2-0.2v-0.1
					c0-4.34,0-8.68,0-12.93c0-0.3,0-0.3,0.3-0.3c0.3,0,0.5,0,0.81,0c0.2,0,0.2,0,0.2,0.2c0,0.4,0,0.81,0,1.11
					C50.09,4.95,50.09,6.77,50.09,8.58z"/>
				<path class="st0" d="M22.42,12.12c0-3.94,0-7.88,0-11.81c0-0.3,0-0.3,0.3-0.3c0.1,0,0.1,0,0.2,0c0.1,0,0.1,0,0.1,0.1v0.1
					c0,7.88,0,15.75,0,23.73c0,0.3,0,0.3-0.3,0.3c-0.1,0-0.2,0-0.2,0c-0.1,0-0.1,0-0.1-0.1c0-0.1,0-0.1,0-0.2
					C22.42,19.99,22.42,16.06,22.42,12.12z"/>
				<path class="st0" d="M84.93,10.4c0-1.51,0-3.13,0-4.65c0-0.3,0-0.3,0.3-0.3s0.61,0,0.91,0c0.2,0,0.2,0,0.2,0.2v0.1
					c0,3.03,0,6.16,0,9.19c0,0.3,0,0.3-0.3,0.3s-0.5,0-0.81,0c-0.2,0-0.2,0-0.2-0.2c0-1.21,0-2.42,0-3.64
					C84.93,11.21,84.93,10.8,84.93,10.4z"/>
				<path class="st0" d="M70.28,19.79c-0.1,0.2-0.3,0.3-0.4,0.5c-0.1-0.1-0.1-0.1-0.2-0.2c-0.61-0.4-1.21-0.5-1.82-0.3
					c-0.4,0.1-0.71,0.4-0.91,0.71c-0.4,0.61-0.4,1.31-0.1,2.02c0.2,0.4,0.5,0.71,1.01,0.91c0.61,0.2,1.21,0.1,1.82-0.3
					c0.1-0.1,0.1-0.1,0.1-0.3c0-0.2,0-0.5,0-0.71s0-0.2-0.2-0.2c-0.3,0-0.71,0-1.01,0h-0.1c-0.1,0-0.1,0-0.1-0.1c0-0.1,0-0.2,0-0.4
					c0-0.1,0-0.1,0.1-0.1h0.1c0.5,0,1.11,0,1.62,0h0.1c0.1,0,0.1,0,0.1,0.1c0,0.1,0,0.1,0,0.2c0,0.5,0,1.01,0,1.51
					c0,0.2-0.1,0.3-0.2,0.4c-0.4,0.3-0.81,0.5-1.31,0.5c-0.5,0.1-1.01,0-1.41-0.1c-0.81-0.3-1.21-0.81-1.41-1.62
					c-0.2-0.71-0.1-1.31,0.2-2.02c0.4-0.71,1.01-1.11,1.82-1.31c0.71-0.1,1.41,0,2.02,0.5C70.18,19.69,70.18,19.69,70.28,19.79z"/>
				<path class="st0" d="M37.56,21c0.1-0.1,0.2-0.2,0.3-0.3c0.61-0.5,1.51-0.4,2.12,0.1c0.4,0.4,0.61,0.81,0.61,1.41
					c0,0.3,0,0.5-0.1,0.81c-0.2,0.71-0.91,1.21-1.62,1.21c-0.4,0-0.81-0.1-1.11-0.4c0,0-0.1-0.1-0.2-0.2c0,0.1,0,0.1,0,0.1
					c0,0.1,0,0.1,0,0.2c0,0.1,0,0.1-0.1,0.1s-0.2,0-0.4,0c-0.1,0-0.1,0-0.1-0.2v-0.1c0-1.51,0-3.03,0-4.54c0-0.3,0-0.3,0.3-0.3
					c0.1,0,0.1,0,0.2,0c0.2,0,0.2,0,0.2,0.2c0,0.1,0,0.3,0,0.4c0,0.4,0,0.81,0,1.21C37.56,20.8,37.56,20.9,37.56,21z M37.56,22.32
					c0,0.4,0.1,0.81,0.5,1.11c0.61,0.4,1.51,0.2,1.82-0.61c0.1-0.4,0.1-0.71,0-1.11c-0.3-0.71-1.11-0.91-1.72-0.61
					C37.77,21.31,37.56,21.71,37.56,22.32z"/>
				<path class="st0" d="M28.17,21.61c0-0.71,0-1.41,0-2.12v-0.1c0-0.1,0-0.2,0.2-0.2c0.5,0,0.91,0,1.41,0c0.3,0,0.5,0,0.81,0
					c0.4,0.1,0.71,0.2,1.01,0.5c0.5,0.5,0.4,1.51-0.1,2.02c-0.3,0.3-0.71,0.5-1.11,0.5c-0.3,0-0.5,0-0.81,0c-0.2,0-0.4,0-0.5,0
					c-0.2,0-0.2,0-0.2,0.2c0,0.4,0,0.81,0,1.21v0.1c0,0.1,0,0.1-0.2,0.2c-0.1,0-0.2,0-0.3,0s-0.1,0-0.2-0.2v-0.1
					C28.17,23.02,28.17,22.32,28.17,21.61z M28.78,20.8c0,0.3,0,0.5,0,0.81c0,0.2,0,0.2,0.2,0.2c0.3,0,0.71,0,1.01,0
					s0.5-0.1,0.81-0.2c0.4-0.3,0.5-1.01,0.1-1.41c-0.2-0.2-0.5-0.3-0.81-0.3c-0.4,0-0.81,0-1.21,0c-0.2,0-0.2,0-0.2,0.2
					C28.78,20.2,28.78,20.5,28.78,20.8z"/>
				<path class="st0" d="M49.48,20.8l0.1-0.1c0.5-0.5,1.51-0.5,2.02,0c0.3,0.3,0.4,0.61,0.4,0.91c0,0.71,0,1.51,0,2.22
					c0,0.1,0,0.2-0.2,0.2c-0.1,0-0.2,0-0.3,0s-0.1,0-0.1-0.2v-0.1c0-0.61,0-1.21,0-1.92c0-0.2,0-0.4-0.2-0.61
					c-0.1-0.2-0.4-0.3-0.61-0.3c-0.2,0-0.3,0-0.5,0c-0.4,0.1-0.61,0.5-0.61,0.91c0,0.61,0,1.21,0,1.82c0,0.3,0,0.3-0.3,0.3
					c-0.1,0-0.1,0-0.2,0c-0.2,0-0.2,0-0.2-0.2l0,0c0-1.51,0-3.03,0-4.54c0-0.3,0-0.3,0.3-0.3c0.1,0,0.2,0,0.3,0s0.1,0,0.1,0.1v0.1
					c0,0.5,0,0.91,0,1.41C49.38,20.7,49.38,20.7,49.48,20.8L49.48,20.8z"/>
				<path class="st0" d="M77.86,22.22c0,1.01-0.81,1.92-1.92,1.92c-1.11,0-1.92-0.81-1.92-1.92c0-1.11,0.91-1.92,1.92-1.92
					C76.95,20.3,77.86,21.21,77.86,22.22z M75.94,20.9c-0.3,0-0.61,0.1-0.81,0.3c-0.61,0.5-0.5,1.31-0.3,1.72
					c0.4,0.81,1.41,0.81,2.02,0.2c0.3-0.4,0.4-0.81,0.3-1.31C76.95,21.31,76.44,20.9,75.94,20.9z"/>
				<path class="st0" d="M55.64,20.9c0.1-0.1,0.1-0.1,0.1-0.1c0.3-0.3,0.71-0.4,1.21-0.4c0.3,0,0.61,0.2,0.91,0.4
					c0.1,0.1,0.2,0.2,0.2,0.4c0.1,0.2,0.1,0.4,0.1,0.71c0,0.71,0,1.31,0,2.02v0.1c0,0.1,0,0.1-0.1,0.1c-0.1,0-0.3,0-0.4,0
					c-0.1,0-0.1,0-0.1-0.1c0-0.1,0-0.1,0-0.2c0-0.61,0-1.21,0-1.72c0-0.2,0-0.4-0.1-0.61c-0.1-0.3-0.4-0.5-0.71-0.5
					c-0.1,0-0.3,0-0.4,0c-0.4,0.1-0.61,0.4-0.71,0.71c0,0.1,0,0.3,0,0.4c0,0.5,0,1.11,0,1.62c0,0.1,0,0.1,0,0.2c0,0.1,0,0.1-0.1,0.1
					c-0.1,0-0.3,0-0.4,0c-0.1,0-0.1,0-0.1-0.1v-0.1c0-1.01,0-2.12,0-3.13c0-0.2,0-0.2,0.2-0.3c0.1,0,0.2,0,0.3,0
					c0.1,0,0.1,0,0.1,0.1C55.54,20.6,55.54,20.7,55.64,20.9z"/>
				<path class="st0" d="M81.09,23.63l-0.1,0.1c-0.3,0.3-0.61,0.4-1.01,0.4s-0.71-0.1-1.01-0.4c-0.3-0.3-0.4-0.61-0.4-1.01
					c0-0.71,0-1.41,0-2.22c0-0.2,0-0.2,0.2-0.2c0.1,0,0.2,0,0.3,0c0.1,0,0.1,0,0.1,0.1c0,0.1,0,0.1,0,0.2c0,0.61,0,1.21,0,1.82
					c0,0.1,0,0.3,0.1,0.4c0.1,0.3,0.4,0.61,0.81,0.61c0.61,0,1.11-0.4,1.11-1.01c0-0.61,0-1.21,0-1.82c0-0.1,0-0.1,0-0.2
					c0-0.1,0-0.1,0.1-0.1c0.1,0,0.3,0,0.4,0c0.1,0,0.1,0,0.1,0.1v0.1c0,1.01,0,2.12,0,3.13c0,0.3,0,0.3-0.3,0.3c-0.1,0-0.2,0-0.2,0
					c-0.1,0-0.1,0-0.1-0.2C81.19,23.83,81.19,23.73,81.09,23.63C81.19,23.63,81.09,23.63,81.09,23.63z"/>
				<path class="st0" d="M35.04,23.63C35.04,23.63,34.94,23.73,35.04,23.63c-0.5,0.5-0.91,0.61-1.41,0.5
					c-0.61-0.1-1.01-0.61-1.11-1.31c0-0.71,0-1.51,0-2.22c0-0.1,0-0.2,0.2-0.2c0.1,0,0.2,0,0.4,0c0.1,0,0.1,0,0.1,0.1s0,0.1,0,0.2
					c0,0.61,0,1.31,0,1.92c0,0.2,0,0.4,0.1,0.5c0.1,0.2,0.3,0.3,0.5,0.4c0.61,0.2,1.21-0.3,1.31-0.91c0-0.61,0-1.21,0-1.82
					c0-0.3,0-0.3,0.3-0.3c0.1,0,0.1,0,0.2,0c0.1,0,0.1,0,0.1,0.1v0.1c0,1.01,0,2.12,0,3.13c0,0.2,0,0.2-0.3,0.3c-0.1,0-0.1,0-0.2,0
					c-0.1,0-0.2,0-0.2-0.2C35.04,23.83,35.04,23.73,35.04,23.63L35.04,23.63z"/>
				<path class="st0" d="M45.04,23.53c0.1-0.1,0.2-0.3,0.3-0.4c0.1,0,0.2,0.1,0.2,0.1c0.3,0.2,0.71,0.3,1.11,0.3
					c0.1,0,0.3,0,0.4-0.1c0.3-0.1,0.3-0.5,0-0.71c-0.1-0.1-0.3-0.1-0.4-0.2c-0.2-0.1-0.4-0.1-0.61-0.2c-0.1-0.1-0.3-0.1-0.4-0.2
					c-0.61-0.3-0.5-1.11,0-1.51c0.3-0.2,0.71-0.3,1.01-0.3c0.3,0,0.61,0.1,0.91,0.2c0.3,0.1,0.3,0.2,0.1,0.4c0,0.1-0.1,0.1-0.1,0.2
					c-0.1-0.1-0.2-0.1-0.3-0.2c-0.3-0.1-0.5-0.2-0.81-0.2c-0.1,0-0.3,0-0.4,0.1c-0.2,0.1-0.2,0.5,0,0.61c0.1,0.1,0.3,0.1,0.4,0.2
					c0.2,0.1,0.5,0.2,0.71,0.2c0.1,0,0.2,0.1,0.2,0.1c0.71,0.4,0.61,1.11,0.3,1.51c-0.2,0.2-0.5,0.4-0.81,0.4
					c-0.61,0.1-1.11-0.1-1.62-0.4C45.14,23.63,45.14,23.63,45.04,23.53C45.14,23.63,45.04,23.63,45.04,23.53z"/>
				<path class="st0" d="M72.3,21.11c0.1-0.1,0.2-0.2,0.3-0.3c0.3-0.3,0.61-0.4,1.01-0.4c0.1,0,0.1,0,0.2,0.1c0,0.1,0,0.3,0,0.4
					c0,0.1,0,0.1-0.1,0.1c-0.1,0-0.2,0-0.2,0c-0.5,0.1-0.91,0.5-1.01,1.11c0,0.1,0,0.3,0,0.5c0,0.4,0,0.81,0,1.21
					c0,0.2,0,0.2-0.2,0.2c-0.1,0-0.2,0-0.3,0s-0.1,0-0.1-0.1v-0.1c0-1.01,0-2.12,0-3.13c0-0.3,0-0.3,0.3-0.3c0.1,0,0.2,0,0.3,0
					c0.1,0,0.1,0,0.1,0.1C72.2,20.7,72.2,20.8,72.3,21.11C72.2,21,72.2,21,72.3,21.11z"/>
				<path class="st0" d="M42.21,21.51c0,0.71,0,1.51,0,2.22v0.1c0,0.2,0,0.2-0.2,0.2c-0.1,0-0.2,0-0.3,0s-0.1,0-0.1-0.1v-0.1
					c0-1.51,0-3.13,0-4.65c0-0.2,0-0.2,0.3-0.2c0.1,0,0.2,0,0.3,0s0.1,0,0.1,0.1c0,0.1,0,0.1,0,0.2
					C42.21,19.99,42.21,20.8,42.21,21.51z"/>
				<path class="st0" d="M44.13,22.22c0,0.5,0,1.01,0,1.51c0,0.1,0,0.1,0,0.2c0,0.1,0,0.1-0.1,0.1s-0.3,0-0.4,0
					c-0.1,0-0.1,0-0.1-0.1v-0.1c0-1.01,0-2.12,0-3.13c0-0.2,0-0.2,0.2-0.3c0.1,0,0.2,0,0.3,0s0.1,0,0.2,0.2v0.1
					C44.13,21.21,44.13,21.71,44.13,22.22z"/>
				<path class="st0" d="M53.02,22.22c0-0.5,0-1.01,0-1.62c0-0.1,0-0.1,0-0.2c0-0.1,0-0.1,0.1-0.1s0.3,0,0.4,0c0.1,0,0.1,0,0.1,0.1
					v0.1c0,1.01,0,2.12,0,3.13c0,0.2,0,0.2-0.2,0.2c-0.1,0-0.2,0-0.3,0s-0.1,0-0.1-0.1v-0.1C53.02,23.23,53.02,22.72,53.02,22.22z"
					/>
				<path class="st0" d="M85.53,1.72c0.4,0,0.81,0.4,0.81,0.81c0,0.4-0.4,0.81-0.81,0.81c-0.4,0-0.81-0.3-0.81-0.81
					C84.72,2.12,85.03,1.72,85.53,1.72z"/>
				<path class="st0" d="M43.83,19.79c-0.1,0-0.2,0-0.2,0c-0.1,0-0.1,0-0.1-0.1c0-0.1,0-0.3,0-0.4c0-0.1,0-0.1,0.1-0.1
					c0.2,0,0.3,0,0.5,0c0.1,0,0.1,0,0.1,0.1c0,0.1,0,0.3,0,0.4c0,0.1-0.1,0.1-0.1,0.1C43.93,19.79,43.83,19.79,43.83,19.79z"/>
				<path class="st0" d="M53.42,19.79c-0.1,0-0.1,0-0.2,0c-0.1,0-0.1,0-0.1-0.1c0-0.1,0-0.3,0-0.4c0-0.1,0-0.1,0.1-0.1
					c0.2,0,0.3,0,0.5,0c0.1,0,0.1,0,0.1,0.1c0,0.1,0,0.3,0,0.4c0,0.1,0,0.1-0.1,0.1C53.52,19.79,53.42,19.79,53.42,19.79z"/>
				<path class="st0" d="M68.97,15.35c0-0.5,0-1.11,0-1.62l0,0l0,0c0,0.1,0,0.1,0,0.2c0,0.4,0,0.81,0,1.21
					C68.97,15.25,68.97,15.25,68.97,15.35z"/>
				<path class="st0" d="M67.76,15.35c0.4,0,0.81,0,1.21,0h-0.1c-0.3,0-0.61,0-0.91,0C67.86,15.35,67.76,15.35,67.76,15.35z"/>
				<path class="st0" d="M72.61,5.25c-0.1,0-0.2,0-0.3,0C72.4,5.15,72.5,5.15,72.61,5.25z"/>
				<path class="st0" d="M71.9,15.55c0.1,0,0.1,0,0.2,0C72,15.65,71.9,15.55,71.9,15.55z"/>
				<path class="st0" d="M72.71,15.65c0.1,0,0.1,0,0.2,0C72.91,15.55,72.81,15.65,72.71,15.65z"/>
			</g>
		</g>
	</g>
</g>
</svg>
