<?xml version="1.0" encoding="utf-8"?>
<!-- Generator: Adobe Illustrator 27.3.1, SVG Export Plug-In . SVG Version: 6.00 Build 0)  -->
<svg version="1.1" id="Layer_1" xmlns="http://www.w3.org/2000/svg" xmlns:xlink="http://www.w3.org/1999/xlink" x="0px" y="0px"
	 viewBox="0 0 147.74 35.55" style="enable-background:new 0 0 147.74 35.55;" xml:space="preserve">
<style type="text/css">
	.st0{fill:#FFFFFF;}
	.st1{fill-rule:evenodd;clip-rule:evenodd;fill:#FFFFFF;}
</style>
<g>
	<g>
		<path class="st0" d="M50.49,30.29h1.41v5.25h-1.41V30.29z"/>
		<path class="st0" d="M54.23,32.31c0,0.2,0,0.71,0,0.91v2.22h-1.11v-5.15h1.11l1.31,2.12c0.4,0.61,0.5,0.91,0.61,1.21l0,0
			c0-0.2,0-0.61,0-0.81v-2.52h1.11v5.25h-1.11l-1.11-1.72C54.53,32.92,54.43,32.52,54.23,32.31L54.23,32.31z"/>
		<path class="st0" d="M59.78,32.31c0,0.2,0,0.71,0,0.91v2.22h-1.11v-5.15h1.11l1.31,2.12c0.4,0.61,0.5,0.91,0.61,1.21l0,0
			c0-0.2,0-0.61,0-0.81v-2.52h1.11v5.25H61.7l-1.11-1.72C60.08,32.92,59.88,32.52,59.78,32.31L59.78,32.31z"/>
		<path class="st0" d="M66.65,30.09c1.72,0,2.73,1.31,2.73,2.73c0,1.51-1.21,2.73-2.73,2.73c-1.92,0-2.73-1.51-2.73-2.73
			C63.82,31.41,65.03,30.09,66.65,30.09z M66.65,34.43c0.81,0,1.41-0.71,1.41-1.51c0-0.81-0.5-1.51-1.31-1.51s-1.41,0.71-1.41,1.51
			C65.23,33.83,65.84,34.43,66.65,34.43z"/>
		<path class="st0" d="M72.81,35.55H71.6l-1.92-5.25h1.41l0.71,2.32c0.1,0.3,0.2,0.81,0.3,1.21l0,0c0.1-0.4,0.2-0.91,0.3-1.21
			l0.71-2.32h1.41L72.81,35.55z"/>
		<path class="st0" d="M76.44,30.29h1.31l1.82,5.25h-1.41l-0.3-1.01h-1.72l-0.3,1.01h-1.31L76.44,30.29z M76.44,33.53h1.11
			l-0.4-1.11c-0.1-0.3-0.1-0.4-0.2-0.61l0,0c-0.1,0.2-0.1,0.4-0.2,0.61L76.44,33.53z"/>
		<path class="st0" d="M80.68,31.51h-1.21v-1.21h3.74v1.21H82v4.04h-1.41v-4.04H80.68z"/>
		<path class="st0" d="M84.12,30.29h1.41v5.25h-1.41V30.29z"/>
		<path class="st0" d="M89.27,30.09c1.72,0,2.73,1.31,2.73,2.73c0,1.51-1.21,2.73-2.73,2.73c-1.92,0-2.73-1.51-2.73-2.73
			C86.44,31.41,87.55,30.09,89.27,30.09z M89.17,34.43c0.81,0,1.41-0.71,1.41-1.51c0-0.81-0.5-1.51-1.31-1.51s-1.41,0.71-1.41,1.51
			C87.85,33.83,88.46,34.43,89.17,34.43z"/>
		<path class="st0" d="M94.11,32.31c0,0.2,0,0.71,0,0.91v2.22H93v-5.15h1.11l1.31,2.12c0.4,0.61,0.5,0.91,0.61,1.21l0,0
			c0-0.2,0-0.61,0-0.81v-2.52h1.11v5.25h-1.11l-1.11-1.72C94.42,32.92,94.22,32.52,94.11,32.31L94.11,32.31z"/>
	</g>
	<path class="st1" d="M11.31,9.59c-0.61,0.71-1.21,1.51-1.21,2.83c0,2.32,1.31,4.24,3.84,4.24c3.23,0,3.84-3.33,3.84-4.85
		c0-0.2,0-0.4,0-0.5l0,0c0.81-0.1,1.72-0.5,2.52-1.01l0,0c0,1.62,0.1,3.13,0.1,3.74c0,2.22,0.1,2.42,0.81,2.42
		c0.71,0,1.11-1.51,1.82-2.93c0.81-1.72,1.62-3.53,2.12-3.53c1.01,0-0.81,6.46,1.51,6.46c1.62,0,4.04-6.56,5.15-6.56
		c0.81,0-0.81,6.56,1.01,6.56c1.31,0,3.64-6.66,4.34-6.66c0.81,0-0.81,6.66,1.51,6.66c2.12,0,3.84-5.45,4.44-5.45
		c0.3,0,0.81,0.71,1.21,1.72l0,0c-0.71,0.91-1.21,1.82-1.21,2.42c0,0.81,0.61,1.31,1.31,1.31c1.01,0,1.92-1.01,1.92-2.52
		c0-0.3,0-1.21-0.4-2.12l0,0c1.51-1.41,3.33-2.52,4.54-2.73c-0.61,0.71-1.82,1.41-1.82,3.53c0,2.32,1.72,4.04,4.04,4.04
		c3.13,0,3.84-3.33,3.84-4.65c0-0.5-0.1-0.91-0.2-1.31l0,0c1.11-0.5,1.92-1.21,2.22-1.21c0.61,0,0.4,2.02,0.4,4.04
		c0,1.51-0.2,3.13,0.91,3.13c0.91,0,1.31-1.72,2.12-3.23c0.81-1.51,1.72-3.53,2.12-3.53c0.5,0,0.3,3.13,0.3,3.74
		c0,0.81-0.1,3.23,1.41,3.23c1.11,0,3.13-3.03,3.13-3.43c0-0.2,0-0.3-0.2-0.3s-1.41,2.02-1.92,2.02c-0.71,0-0.3-2.63-0.3-4.54
		c0-0.81,0.1-2.73-1.31-2.73c-1.82,0-3.53,5.05-4.04,5.05s0.71-4.85-1.51-4.85c-0.91,0-2.22,1.21-3.74,1.82l0,0
		c-0.5-1.01-1.51-1.62-2.42-1.62c-0.71,0-1.21,0.5-1.21,1.01c0,0.71,0.61,1.72,1.92,1.72c0.4,0,0.71-0.1,1.11-0.2l0,0
		c0.1,0.4,0.2,0.81,0.2,1.11c0,1.21-0.81,2.83-2.42,2.83c-1.31,0-2.42-1.31-2.42-2.93c0-2.63,1.62-3.13,1.62-3.64
		c0-0.2-0.2-0.3-0.5-0.3c-1.82,0-4.24,1.51-6.16,3.23l0,0c-0.1-0.1-0.1-0.2-0.2-0.3c-1.82-2.52-1.11-3.13-1.62-3.13
		c-0.61,0-3.23,7.17-4.24,7.17c-1.31,0,1.11-6.87-1.51-6.87c-2.12,0-3.23,5.45-4.04,5.45c-0.81,0,0.81-5.45-1.51-5.45
		c-1.62,0-4.04,6.46-5.05,6.46c-0.91,0,0.81-6.36-1.21-6.36c-1.92,0-3.53,4.95-4.04,4.95c-0.4,0-0.3-1.51-0.3-4.44l0,0
		c1.62-1.72,2.73-4.14,2.73-6.36c0-1.01-0.5-1.92-1.51-1.92c-1.92,0-3.03,3.03-3.03,6.36c0,0.71,0,1.62,0,2.63l0,0
		c-0.91,0.61-1.72,1.01-2.22,1.01c-0.1,0-0.3,0-0.4,0l0,0c-0.4-1.41-1.62-2.12-2.52-2.12c-0.71,0-1.21,0.61-1.21,1.21
		c0,0.81,0.71,1.62,2.93,1.72l0,0c0.1,0.3,0.1,0.61,0.1,0.81c0,1.21-0.91,2.93-2.52,2.93c-1.41,0-2.42-1.62-2.42-3.33
		c0-2.22,1.51-2.93,1.51-3.13c0-0.1,0-0.2-0.1-0.2c-1.51,0-3.94,1.62-6.16,4.04l0,0c-0.3-1.92-0.61-4.24-0.61-6.97
		c0-3.94,0.71-4.44,0.71-4.95c0-0.2-0.1-0.3-0.5-0.3C5.76,0,0,2.63,0,8.38c0,4.44,2.42,6.36,4.04,7.57l0,0
		c-1.72,2.52-2.93,5.25-2.93,7.67c0,1.31,0.5,2.73,1.51,2.73c1.62,0,4.65-3.33,4.65-10.3c0-0.91-0.1-1.92-0.3-3.13l0,0
		C8.58,11.51,10.1,10.3,11.31,9.59L11.31,9.59z M133.7,10.3L133.7,10.3c-0.3-0.61-0.71-1.01-1.21-1.01c-0.2,0-0.4,0.2-0.4,0.4
		c0,0.4,0.4,0.71,1.01,0.71C133.3,10.4,133.5,10.3,133.7,10.3L133.7,10.3z M83.11,15.55c0.3-0.4,0.61-0.81,0.91-1.21l0,0
		c-0.4-2.02-0.81-4.04-0.81-5.45c0-4.14,1.82-7.07,1.82-7.67c0-0.4,0.1-0.5-0.2-0.5c-0.2,0-4.34,1.72-4.34,7.98
		C80.48,11.11,81.69,14.14,83.11,15.55L83.11,15.55z M82.8,16.06c-0.61-0.4-1.11-1.21-1.92-1.72c-0.71-0.5-2.52,0-4.14,0.3l0,0
		c-0.1,0.91-0.4,1.82-0.81,1.82c-0.2,0-0.3-0.71-0.5-1.62l0,0c-0.71,0.1-1.31,0.2-1.72,0.2c-1.11,0-3.64-0.5-3.64-2.12
		c0-0.91,1.01-1.31,2.02-1.31c1.11,0,2.93,0.81,3.43,1.72c0.1-1.62-1.01-2.42-1.01-2.73c0-0.3,1.21-0.71,1.31-0.71
		c0.5,0,0.91,2.22,0.91,3.84c0,0.1,0,0.2,0,0.2l0,0c1.21-0.2,2.63-0.5,3.53-0.4c-0.81-1.21-1.51-2.83-1.51-5.15
		c0-5.76,5.76-8.38,6.66-8.38c0.4,0,0.5,0.1,0.5,0.3c0,0.5-0.71,1.01-0.71,4.95c0,2.73,0.3,5.05,0.61,6.97l0,0
		c2.32-2.42,4.75-4.04,6.16-4.04c0,0,0.1,0.1,0.1,0.2c0,0.2-1.51,0.91-1.51,3.13c0,1.72,1.11,3.33,2.52,3.33
		c1.62,0,2.52-1.72,2.52-2.93c0-0.2,0-0.5-0.1-0.81l0,0c-2.22,0-2.93-0.91-2.93-1.72c0-0.5,0.5-1.21,1.21-1.21
		c0.81,0,2.02,0.61,2.42,2.12c0.2,0,0.3,0,0.4,0c0.5,0,1.31-0.3,2.22-1.01l0,0c0-0.91,0-1.92,0-2.63c0-3.33,1.11-6.36,3.03-6.36
		c1.01,0,1.51,0.81,1.51,1.92c0,2.22-1.11,4.65-2.73,6.36l0,0c0,2.83-0.1,4.44,0.3,4.44c0.5,0,2.02-4.95,4.04-4.95
		s0.4,6.36,1.21,6.36c1.01,0,3.43-6.46,5.05-6.46c2.22,0,0.71,5.45,1.51,5.45s2.02-5.45,4.04-5.45c2.63,0,0.2,6.87,1.51,6.87
		c1.01,0,3.64-7.17,4.24-7.17c0.5,0-0.2,0.61,1.62,3.13c0.1,0.1,0.1,0.2,0.2,0.3l0,0c1.82-1.72,4.34-3.23,6.16-3.23
		c0.3,0,0.5,0,0.5,0.3c0,0.5-1.62,1.01-1.62,3.64c0,1.62,1.11,2.93,2.42,2.93c1.62,0,2.42-1.62,2.42-2.83c0-0.3-0.1-0.71-0.2-1.11
		l0,0c-0.3,0.1-0.71,0.2-1.11,0.2c-1.41,0-1.92-1.01-1.92-1.72c0-0.5,0.5-1.01,1.21-1.01c0.91,0,1.92,0.5,2.42,1.62l0,0
		c1.41-0.61,2.83-1.82,3.74-1.82c2.22,0,1.01,4.85,1.51,4.85c0.61,0,2.22-5.05,4.04-5.05c1.41,0,1.31,1.92,1.31,2.73
		c0,1.92-0.4,4.54,0.3,4.54c0.5,0,1.72-2.02,1.92-2.02c0.2,0,0.2,0,0.2,0.3c0,0.4-2.02,3.43-3.13,3.43c-1.62,0-1.41-2.42-1.41-3.23
		c0-0.61,0.2-3.74-0.3-3.74c-0.3,0-1.31,2.02-2.12,3.53c-0.91,1.51-1.31,3.23-2.12,3.23c-1.11,0-0.91-1.62-0.91-3.13
		c0-2.02,0.3-4.04-0.4-4.04c-0.3,0-1.11,0.71-2.22,1.21l0,0c0.1,0.4,0.2,0.81,0.2,1.31c0,1.31-0.71,4.65-3.84,4.65
		c-2.22,0-4.04-1.72-4.04-4.04c0-2.12,1.21-2.83,1.92-3.53c-1.21,0.2-3.03,1.41-4.54,2.73l0,0c0.4,0.91,0.4,1.82,0.4,2.12
		c0,1.51-1.01,2.52-1.92,2.52c-0.61,0-1.31-0.4-1.31-1.31c0-0.71,0.5-1.51,1.21-2.42l0,0c-0.4-1.01-0.91-1.72-1.21-1.72
		c-0.61,0-2.32,5.45-4.44,5.45c-2.32,0-0.71-6.66-1.51-6.66s-3.03,6.66-4.34,6.66c-1.82,0-0.2-6.56-1.01-6.56
		c-1.01,0-3.53,6.56-5.15,6.56c-2.32,0-0.61-6.46-1.51-6.46c-0.5,0-1.31,1.72-2.12,3.53c-0.71,1.41-1.11,2.93-1.82,2.93
		s-0.81-0.3-0.81-2.42c0-0.71,0-2.22-0.1-3.74l0,0c-0.81,0.5-1.62,0.91-2.52,1.01l0,0c0,0.2,0,0.3,0,0.5c0,1.62-0.61,4.85-3.84,4.85
		c-2.42,0-3.74-1.82-3.74-4.24c0-1.31,0.61-2.12,1.21-2.83c-1.31,0.81-2.73,1.92-4.14,3.43l0,0c0.1,1.21,0.3,2.22,0.3,3.13
		c0,6.87-3.03,10.3-4.65,10.3c-1.01,0-1.51-1.31-1.51-2.73C79.88,21.31,81.09,18.48,82.8,16.06L82.8,16.06z M123.1,13.43
		L123.1,13.43c-0.4,0.61-0.61,1.11-0.61,1.62s0.1,0.71,0.4,0.71c0.3,0,0.5-0.3,0.5-0.81C123.3,14.44,123.2,13.94,123.1,13.43
		L123.1,13.43z M100.58,7.78L100.58,7.78c1.01-1.31,1.72-3.03,1.72-5.05c0-1.01-0.1-1.51-0.61-1.51
		C100.48,1.11,100.58,6.06,100.58,7.78L100.58,7.78z M95.12,10.5L95.12,10.5c-0.2-0.61-0.61-1.01-1.21-1.01c-0.2,0-0.4,0.1-0.4,0.3
		C93.61,10.3,94.32,10.4,95.12,10.5L95.12,10.5z M84.22,14.95L84.22,14.95c-1.82,2.42-3.13,5.15-3.13,7.78c0,0.91,0,2.12,1.21,2.12
		c1.51,0,2.52-2.22,2.52-5.25C84.72,18.18,84.52,16.56,84.22,14.95L84.22,14.95z M75.23,14.24L75.23,14.24
		c-0.4-1.01-1.11-1.92-2.52-1.92c-0.4,0-0.61,0.3-0.61,0.81c0,0.81,1.21,1.31,2.32,1.31C74.63,14.34,74.83,14.24,75.23,14.24
		L75.23,14.24z M55.14,10.3c-0.2,0-0.4,0.1-0.71,0.1c-0.61,0-1.01-0.3-1.01-0.71c0-0.2,0.2-0.4,0.4-0.4
		C54.43,9.29,54.83,9.69,55.14,10.3L55.14,10.3L55.14,10.3z M44.53,13.43c0.1,0.5,0.2,1.01,0.2,1.51c0,0.4-0.2,0.81-0.5,0.81
		c-0.3,0-0.4-0.3-0.4-0.71C43.83,14.54,44.13,14.04,44.53,13.43L44.53,13.43L44.53,13.43z M22.01,7.78c0-1.72-0.1-6.56,1.21-6.56
		c0.5,0,0.61,0.61,0.61,1.51C23.73,4.75,23.02,6.46,22.01,7.78L22.01,7.78L22.01,7.78z M16.56,10.5c-0.81,0-1.51-0.2-1.51-0.71
		c0-0.2,0.1-0.3,0.4-0.3C15.96,9.39,16.36,9.9,16.56,10.5L16.56,10.5L16.56,10.5z M5.45,14.34c-0.3,0.4-0.61,0.81-0.91,1.21l0,0
		c-1.41-1.41-2.63-4.44-2.63-6.97c0-6.16,4.14-7.98,4.34-7.98c0.3,0,0.2,0.1,0.2,0.5c0,0.61-1.82,3.53-1.82,7.67
		C4.65,10.3,5.05,12.22,5.45,14.34L5.45,14.34L5.45,14.34z M5.55,14.95c0.3,1.62,0.5,3.23,0.5,4.65c0,3.03-1.01,5.25-2.52,5.25
		c-1.21,0-1.21-1.31-1.21-2.12C2.42,20.1,3.74,17.27,5.55,14.95L5.55,14.95L5.55,14.95z"/>
</g>
</svg>
