<?xml version="1.0" encoding="utf-8"?>
<!-- Generator: Adobe Illustrator 27.3.1, SVG Export Plug-In . SVG Version: 6.00 Build 0)  -->
<svg version="1.1" id="Layer_1" xmlns="http://www.w3.org/2000/svg" xmlns:xlink="http://www.w3.org/1999/xlink" x="0px" y="0px"
	 viewBox="0 0 798.84 165.07" style="enable-background:new 0 0 798.84 165.07;" xml:space="preserve">
<style type="text/css">
	.st0{fill-rule:evenodd;clip-rule:evenodd;fill:#FFFFFF;}
</style>
<path class="st0" d="M125.07,6.14C115.25,4.3,93.16,0,67.39,0C42.23,0,19.53,4.3,9.71,6.14c-3.68,0.61-6.14,3.68-6.14,7.98
	C2.35,30.07-1.33,72.41,0.51,88.98c4.3,39.89,33.14,64.43,66.89,76.09c4.3-1.23,8.59-3.07,12.89-4.91L22.6,44.18l-5.52-4.3
	c-0.61-0.61-1.23-1.84-1.23-3.07v-17.8c0-1.23,0.61-1.84,1.84-1.84c0.61,0,0.61,0,1.23,0.61l14.11,10.43
	c0.61,0.61,1.23,1.84,1.23,3.07v7.36c6.14-3.68,14.11-5.52,22.09-4.91c12.89,0.61,21.48,9.2,36.82,9.82
	c12.27,0.61,20.25-3.68,27-7.36c0.61,9.2,1.23,19.02,1.84,28.23v9.2c-6.75,5.52-18.41,11.05-24.55,11.05
	c-10.43,0-17.8-6.75-27.61-6.75c-4.91,0-9.2,1.23-13.5,4.3l36.2,71.79c22.7-13.5,39.89-35.59,42.95-65.04
	c1.84-16.57-1.84-58.91-3.07-74.86C130.6,11.05,128.14,6.75,125.07,6.14z M60.64,148.5l-3.07-1.23
	c-23.32-11.66-41.11-31.91-43.57-58.91C13.39,81,13.39,67.5,14.62,52.77L60.64,148.5z M93.16,31.91
	c-15.34-0.61-23.32-8.59-36.82-9.2c-4.91,0-9.2,0.61-13.5,1.84l-11.66-7.36h0.61c9.82-1.23,22.09-2.45,35.59-2.45
	c21.48,0,40.5,3.07,50.93,5.52l0.61,6.14C112.8,28.84,104.82,32.52,93.16,31.91z M95.62,135L75.98,95.73
	c-1.23-3.07-3.68-4.91-3.68-4.91c6.14,1.84,12.89,6.75,24.55,6.75c11.05,0,20.25-6.75,23.93-10.43
	C118.94,107.38,109.73,123.34,95.62,135z M242.89,90.82c-5.52,0-5.52-3.68-5.52-7.98V55.23h14.11l1.23-9.2h-15.34V29.45l-11.05,1.84
	l-1.84,14.73l-8.59,1.84v7.36h8.59v25.16c0,7.36,0,12.89,3.68,15.95c2.45,1.84,5.52,3.07,10.43,3.07c8.59,0,14.11-3.07,15.34-3.68
	l-2.45-7.36C250.87,89.59,247.18,90.82,242.89,90.82z M282.16,45.41c-9.82,0-19.02,4.3-19.64,4.91l2.45,7.36
	c1.23-0.61,7.36-2.45,12.89-2.45c7.36,0,8.59,2.45,8.59,8.59v2.45c-11.66,0.61-28.23,0.61-28.23,16.57
	c0,11.05,6.14,16.57,14.11,16.57c7.98,0,13.5-5.52,14.73-6.75l1.23,6.14h11.05V65.66C298.73,54.61,298.12,45.41,282.16,45.41z
	 M285.84,86.52c-1.23,0.61-4.3,4.3-9.2,4.3c-3.68,0-6.75-1.84-6.75-7.36c0-6.75,4.91-8.59,15.95-9.82V86.52z M196.25,56.45
	c-9.82-3.07-15.34-4.91-15.34-11.05c0-6.75,5.52-9.82,12.27-9.82c7.98,0,14.73,2.45,15.95,3.07l3.07-9.2
	c-2.45-1.23-11.05-4.3-20.25-4.3c-15.34,0-24.55,7.98-24.55,21.48c0,20.86,21.48,19.02,30.07,25.77c2.45,1.84,3.07,3.68,3.07,6.75
	c0,6.14-5.52,10.43-13.5,10.43c-9.2,0-15.34-3.68-16.57-4.3l-4.3,9.2c0.61,0.61,8.59,5.52,21.48,5.52c16.57,0,26.39-8.59,26.39-22.7
	C215.28,64.43,207.3,60.14,196.25,56.45z M725.81,45.41c-7.36,0-14.11,5.52-17.8,7.98l-1.23-6.75h-11.05v52.77h12.89V61.36
	c1.84-1.23,7.36-4.91,11.66-4.91c5.52,0,6.14,4.3,6.14,11.05v32.52h12.89V65.66C739.93,56.45,739.93,45.41,725.81,45.41z
	 M667.52,45.41c-9.82,0-19.02,4.3-19.64,4.91l2.45,7.36c1.23-0.61,7.36-2.45,12.89-2.45c7.36,0,8.59,2.45,8.59,8.59v2.45
	c-11.66,0.61-28.23,0.61-28.23,16.57c0,11.05,6.14,16.57,14.11,16.57c7.98,0,13.5-5.52,14.73-6.75l1.23,6.14h11.05V65.66
	C684.09,54.61,683.47,45.41,667.52,45.41z M671.82,86.52c-1.23,0.61-4.3,4.3-9.2,4.3c-3.68,0-6.75-1.84-6.75-7.36
	c0-6.75,4.91-8.59,15.95-9.82V86.52z M340.46,45.41c-7.36,0-14.11,5.52-17.8,7.98l-1.23-6.75h-11.05v52.77h12.89V61.36
	c1.84-1.23,7.36-4.91,11.66-4.91c5.52,0,6.14,4.3,6.14,11.05v32.52h12.89V65.66C354.57,56.45,353.96,45.41,340.46,45.41z
	 M619.04,60.75c9.82-1.84,14.73-7.36,14.73-17.18c0-17.8-15.34-18.41-28.23-18.41h-19.64v73.64h17.8c12.27,0,16.57-0.61,20.25-2.45
	c7.36-3.07,11.66-9.2,11.66-17.8C635.61,67.5,629.47,61.98,619.04,60.75z M598.79,34.98h6.75c6.14,0,8.59,0.61,11.05,1.84
	c2.45,1.23,3.68,4.91,3.68,8.59c0,8.59-3.68,11.66-16.57,11.66h-5.52V34.98L598.79,34.98L598.79,34.98z M615.97,87.75
	c-3.07,1.23-6.75,1.23-12.27,1.23h-4.91v-22.7h6.75c6.14,0,8.59,0.61,11.05,1.84c3.07,1.84,4.91,4.91,4.91,9.82
	S619.66,86.52,615.97,87.75z M777.36,71.18l20.25-25.16h-13.5L765.7,69.34V20.25l-12.89,1.84v76.09h12.89V73.64l18.41,24.55h14.73
	L777.36,71.18z M539.88,51.54c-3.68-3.07-7.36-6.14-14.11-6.14c-12.27,0-19.02,10.43-19.02,27.61s7.98,27,19.64,27
	c8.59,0,13.5-6.14,14.73-7.36l0.61,6.14h11.05V20.86l-12.89,1.84L539.88,51.54L539.88,51.54z M539.88,84.07
	c-1.23,1.23-4.3,5.52-10.43,5.52c-5.52,0-9.2-4.91-9.2-15.95c0-11.66,3.68-16.57,9.82-16.57c4.91,0,8.59,2.45,9.82,3.68
	L539.88,84.07L539.88,84.07z M398.75,51.54c-3.68-3.07-7.36-6.14-14.11-6.14c-12.27,0-19.02,10.43-19.02,27.61s7.98,27,19.64,27
	c8.59,0,13.5-6.14,14.73-7.36l0.61,6.14h11.05V20.86l-12.89,1.84L398.75,51.54L398.75,51.54z M398.75,84.07
	c-1.23,1.23-4.91,5.52-10.43,5.52c-5.52,0-9.2-4.91-9.2-15.95c0-11.66,3.68-16.57,9.82-16.57c4.91,0,8.59,2.45,9.82,3.68
	L398.75,84.07L398.75,84.07z M444.16,45.41c-9.82,0-19.02,4.3-19.64,4.91l2.45,7.36c1.23-0.61,7.36-2.45,12.89-2.45
	c7.36,0,8.59,2.45,8.59,8.59v2.45c-11.66,0.61-28.23,0.61-28.23,16.57c0,11.05,6.14,16.57,14.11,16.57s13.5-5.52,14.73-6.75
	l1.23,6.14h11.05V65.66C461.34,54.61,460.73,45.41,444.16,45.41z M447.84,86.52c-1.23,0.61-4.3,4.3-9.2,4.3
	c-3.68,0-6.75-1.84-6.75-7.36c0-6.75,4.91-8.59,15.95-9.82V86.52z M485.89,55.23l-1.23-8.59h-11.05v52.77h12.89V64.43
	c1.84-1.84,6.75-6.75,17.8-7.36V45.41C493.25,45.41,487.73,53.39,485.89,55.23z"/>
</svg>
