<?xml version="1.0" encoding="utf-8"?>
<!-- Generator: Adobe Illustrator 27.3.1, SVG Export Plug-In . SVG Version: 6.00 Build 0)  -->
<svg version="1.1" id="Layer_1" xmlns="http://www.w3.org/2000/svg" xmlns:xlink="http://www.w3.org/1999/xlink" x="0px" y="0px"
	 viewBox="0 0 656.18 275.58" style="enable-background:new 0 0 656.18 275.58;" xml:space="preserve">
<style type="text/css">
	.st0{fill-rule:evenodd;clip-rule:evenodd;fill:#FFFFFF;}
</style>
<g>
	<polygon class="st0" points="493.29,181.33 493.29,173.19 490.44,173.19 490.44,171.97 498.17,171.97 498.17,173.19 495.32,173.19 
		495.32,181.33 	"/>
	<path class="st0" d="M510.79,181.33h-2.03V174l0,0c-1.22,2.44-2.03,4.88-3.26,7.32h-1.22c-0.81-2.44-2.03-4.88-2.85-7.32l0,0v7.32
		h-1.63v-9.36h2.44c0.81,2.44,2.44,6.1,2.85,7.32l0,0c0.41-1.22,2.03-4.88,3.26-7.32h2.03v9.36H510.79z"/>
	<path class="st0" d="M313.44,199.23c1.63,0.41,7.32,2.03,7.32,6.1v64.29h19.12v-72.83h-26.45V199.23L313.44,199.23z"/>
	<path class="st0" d="M162.48,196.79v2.44c2.44,0.41,7.32,2.03,5.29,6.51l-28.89,63.88h15.06l8.95-19.94h31.74l7.73,19.94h19.94
		l-28.48-72.83H162.48L162.48,196.79z M166.96,240.73l13.02-28.89l11.39,28.89H166.96L166.96,240.73z"/>
	<path class="st0" d="M457.08,196.79v2.44c2.44,0.41,7.32,2.03,5.29,6.51l-28.48,64.29h15.06l8.95-19.94h31.74l7.73,19.94h19.94
		l-28.48-72.83h-31.74V196.79z M461.96,240.73l13.02-28.89l11.39,28.89H461.96L461.96,240.73z"/>
	<path class="st0" d="M406.21,269.62l30.52-72.83h-14.24l-22.38,53.71l-21.16-53.71h-27.26v2.44c3.26,0.41,6.51,2.03,8.14,6.1
		l25.63,64.7h20.75V269.62z"/>
	<path class="st0" d="M272.75,269.62l30.52-72.83h-14.24l-22.38,53.71l-21.16-53.71h-26.86v2.44c3.26,0.41,6.51,2.03,8.14,6.1
		l25.63,64.7h20.34V269.62z"/>
	<path class="st0" d="M352.91,139.42L365.93,5.55l0,0H250.78v158.69C278.04,152.84,313.03,143.89,352.91,139.42L352.91,139.42z"/>
	<path class="st0" d="M410.28,136.57V5.95h-43.95l0,0l12.61,131.43C389.12,136.57,399.3,136.57,410.28,136.57L410.28,136.57z"/>
</g>
</svg>
