<?xml version="1.0" encoding="utf-8"?>
<!-- Generator: Adobe Illustrator 27.3.1, SVG Export Plug-In . SVG Version: 6.00 Build 0)  -->
<svg version="1.1" id="Layer_1" xmlns="http://www.w3.org/2000/svg" xmlns:xlink="http://www.w3.org/1999/xlink" x="0px" y="0px"
	 viewBox="0 0 656.18 275.58" style="enable-background:new 0 0 656.18 275.58;" xml:space="preserve">
<style type="text/css">
	.st0{fill:#FFFFFF;}
</style>
<g id="WYG3Ph_00000093890365959722117510000001704108868461222295_">
	<g>
		<path class="st0" d="M598.75,103.79c0-5.29,0-9.7,0-14.37c11.05,0,21.77,0,32.75,0c0,41.46,0,82.73,0,124.2
			c-10.39,0-20.57,0-31.22,0c0-4.76,0-9.61,0-15.34c-1.25,1.17-1.85,1.65-2.34,2.22c-11.15,12.83-25.65,16.72-41.89,15.23
			c-13.99-1.28-26.33-6.6-36.16-16.92c-10.28-10.79-15.42-23.94-16.95-38.55c-1.36-13.03,0.34-25.67,5.36-37.89
			c8.98-21.86,30.59-36.02,54.33-35.29c13.11,0.4,24.49,4.83,33.55,14.58C596.7,102.23,597.38,102.67,598.75,103.79z M536.02,151.61
			c0.37,3.25,0.41,6.58,1.18,9.73c3.04,12.41,10.48,20.99,23.13,23.83c11.68,2.62,22.41,0.35,30.82-8.93
			c11.09-12.25,11.56-26.37,5.78-40.73c-8.63-21.41-37.69-25.62-52.5-8C538.59,134.46,536.05,142.57,536.02,151.61z"/>
		<path class="st0" d="M189.12,159.61c2.23,15.91,10.09,25.45,24.62,28.61c12.16,2.64,23.28,0.08,31.92-9.77
			c0.62-0.71,1.72-1.42,2.6-1.42c10.68-0.06,21.37,0.02,32.05,0.07c0.19,0,0.38,0.23,0.87,0.55c-3.86,9.68-9.36,18.15-17.79,24.61
			c-24.69,18.91-59.49,19.13-83.98-0.16c-13.16-10.37-20.57-24.42-22.76-41.13c-2.28-17.45,1-33.61,11.11-48.18
			c10.66-15.37,25.62-23.83,43.92-26.18c16.23-2.08,31.55,1.1,45.32,10.28c14.65,9.76,23.33,23.57,26.22,40.8
			c1.01,6.05,0.52,12.34,0.82,18.52c0.14,2.88-1.21,3.47-3.83,3.46c-28.9-0.08-57.79-0.05-86.69-0.05
			C192.13,159.61,190.74,159.61,189.12,159.61z M250.14,135.69c-2.87-14.41-15.44-23.93-30.33-23.3c-14,0.59-27.07,11.33-28.25,23.3
			C211.01,135.69,230.45,135.69,250.14,135.69z"/>
		<path class="st0" d="M142.73,213.66c-11.11,0-21.99,0-33.32,0c0-1.52,0-2.89,0-4.26c0-28.07-0.06-56.14,0.07-84.2
			c0.02-3.38-0.89-4.36-4.3-4.32c-14.21,0.19-28.42,0.22-42.63-0.01c-3.73-0.06-4.42,1.18-4.4,4.6c0.13,27.83,0.07,55.67,0.07,83.5
			c0,1.5,0,2.99,0,4.67c-11.32,0-22.18,0-33.34,0c-0.07-1.39-0.19-2.64-0.19-3.9c-0.01-28.42-0.04-56.84,0.07-85.26
			c0.01-1.67,0.66-3.81,1.8-4.93c9.9-9.69,19.93-19.24,30.05-28.69c1.21-1.13,3.24-1.94,4.91-1.96c14.8-0.15,29.59-0.16,44.39,0
			c1.76,0.02,3.93,0.86,5.21,2.06c10.19,9.55,20.23,19.26,30.25,28.99c0.81,0.79,1.54,2.13,1.54,3.22
			c0.08,29.71,0.05,59.42,0.04,89.14C142.96,212.66,142.85,213,142.73,213.66z"/>
		<path class="st0" d="M390.42,119.55c-3.75,0-7.13,0-10.51,0c-6.23,0-12.45-0.08-18.68,0.04c-2.28,0.04-3.74-0.49-5.19-2.54
			c-4.93-6.98-18.69-7.57-24.54-1.3c-4.56,4.89-4.3,10.85,1.35,14.39c4.3,2.69,9.16,4.68,13.99,6.31c7.98,2.7,16.28,4.47,24.19,7.35
			c12.75,4.64,21.87,13.02,23.41,27.22c1.56,14.33-3.21,26.38-14.99,35.14c-13.71,10.2-29.33,12.42-45.79,10.15
			c-12.47-1.71-23.36-6.82-31.84-16.39c-5.11-5.76-8.32-14.12-8.67-22.35c0.89-0.09,1.8-0.27,2.7-0.27
			c9.05-0.02,18.09-0.07,27.14,0.06c1.09,0.02,2.99,0.93,3.13,1.68c2.41,13.34,21.83,16.39,31.09,8.52
			c3.86-3.28,5.82-8.31,3.56-12.58c-1.58-2.99-4.45-6.07-7.48-7.39c-8.91-3.84-18.23-6.7-27.3-10.19
			c-5.23-2.01-10.46-4.15-15.36-6.83c-19.41-10.65-18.57-33.97-7.37-47.58c8.25-10.03,19.26-14.76,31.74-16.3
			c12.7-1.56,25.06-0.09,36.49,6.17C381.9,98.58,387.97,107.44,390.42,119.55z"/>
		<path class="st0" d="M493.93,119.57c-13.54,0-26.65,0-39.98,0c0,20.72,0,41.11,0,62.08c6.72,0,13.37,0,20.02,0
			c6.56,0,13.12,0,19.93,0c0,10.79,0,21.28,0,32c-1.13,0.06-2.16,0.16-3.18,0.16c-11.28,0.01-22.56,0.07-33.83-0.07
			c-1.56-0.02-3.5-0.69-4.61-1.74c-10.12-9.64-20.14-19.37-30.04-29.24c-1.06-1.05-1.6-3.08-1.61-4.66
			c-0.11-17.97-0.07-35.95-0.07-53.92c0-1.39,0-2.79,0-4.61c-6.69,0-13.09,0-19.82,0c-0.11-1.52-0.27-2.64-0.27-3.77
			c-0.02-7.87,0.05-15.74-0.05-23.61c-0.03-2.27,0.69-3.11,3.01-3.06c5.5,0.13,11,0.04,16.86,0.04c0.1-1.59,0.25-2.82,0.25-4.06
			c0.02-7.75,0.11-15.51-0.04-23.26c-0.05-2.66,0.87-3.43,3.46-3.39c8.81,0.13,17.62,0.14,26.43,0c2.66-0.04,3.44,0.86,3.4,3.45
			c-0.14,7.63-0.05,15.27-0.05,22.91c0,1.27,0,2.54,0,4.3c13.58,0,26.78,0,40.2,0C493.93,99.4,493.93,109.2,493.93,119.57z"/>
	</g>
</g>
</svg>
