<?xml version="1.0" encoding="utf-8"?>
<!-- Generator: Adobe Illustrator 27.3.1, SVG Export Plug-In . SVG Version: 6.00 Build 0)  -->
<svg version="1.1" id="Layer_1" xmlns="http://www.w3.org/2000/svg" xmlns:xlink="http://www.w3.org/1999/xlink" x="0px" y="0px"
	 viewBox="0 0 656.18 275.58" style="enable-background:new 0 0 656.18 275.58;" xml:space="preserve">
<style type="text/css">
	.st0{enable-background:new    ;}
	.st1{fill:#FFFFFF;}
</style>
<g>
	<g class="st0">
		<path class="st1" d="M77.2,143.91H37.37c-1.84,0-2.45,0.61-2.45,2.45c0,3.68,1.84,7.35,6.13,10.42c4.29,3.06,8.58,4.9,12.87,4.9
			c2.45,0,5.51-0.61,9.19-1.23c3.06-1.23,6.13-2.45,8.58-3.68c1.84-1.23,3.68-1.84,4.9-1.84s3.06,0.61,4.29,2.45
			c1.23,1.84,2.45,3.68,2.45,5.51c0,4.29-2.45,7.96-7.35,11.64c-9.19,6.74-19.61,9.8-31.25,9.8c-11.64,0-22.06-3.68-30.02-10.42
			c-3.68-3.68-7.35-7.35-9.8-12.25C1.84,154.94,0,148.82,0,141.46c0-9.19,3.06-17.77,8.58-25.73c4.9-6.74,11.03-11.64,18.99-14.7
			c5.51-2.45,12.25-3.68,18.99-3.68c11.03,0,19.61,3.06,27.57,9.19c3.68,3.06,6.74,6.74,9.19,11.03c2.45,4.9,3.68,9.19,3.68,14.09
			c0,3.68-0.61,6.74-2.45,9.19C81.49,142.69,79.65,143.91,77.2,143.91z M39.21,127.99h8.58c3.68,0,5.51-1.84,5.51-4.9
			s-0.61-5.51-2.45-7.35c-1.84-1.84-3.68-3.06-6.74-3.06c-3.06,0-5.51,1.23-7.35,3.68c-1.84,2.45-2.45,4.9-2.45,7.35
			c0,1.84,0.61,3.06,1.23,3.68C36.15,127.37,37.37,127.99,39.21,127.99z"/>
		<path class="st1" d="M139.08,97.35c9.8,0,18.38,2.45,25.12,7.35c3.68,2.45,6.13,5.51,7.35,9.19s2.45,7.96,2.45,14.09v12.87
			c0,8.58,0.61,14.7,1.84,17.16c0.61,1.23,1.23,1.84,1.84,2.45s1.84,0.61,3.68,1.23c1.84,0.61,2.45,1.23,2.45,3.68
			c0,2.45-1.23,5.51-3.06,8.58c-2.45,3.06-4.9,5.51-8.58,7.35c-4.29,2.45-8.58,3.68-13.48,3.68c-6.13,0-10.42-1.84-14.09-6.13
			c-1.23-1.23-2.45-2.45-3.06-2.45c-1.23,0-2.45,0.61-4.29,2.45c-5.51,4.29-12.25,6.13-18.99,6.13c-7.35,0-13.48-1.84-17.77-4.9
			c-3.06-2.45-5.51-4.9-7.35-8.58c-1.84-3.06-2.45-6.74-2.45-10.42c0-6.13,2.45-11.03,7.35-15.32c7.35-7.35,18.38-11.03,33.08-11.03
			c3.06,0,5.51-0.61,6.13-1.23c0.61-0.61,1.23-2.45,1.23-4.29c0-6.13-0.61-10.42-1.84-12.87c-1.23-2.45-3.06-3.68-6.13-3.68
			c-1.84,0-3.06,0.61-4.29,1.23c-1.23,1.23-3.06,3.06-4.9,5.51c-4.9,7.35-10.42,11.03-15.93,11.03c-3.06,0-4.9-0.61-6.74-2.45
			c-1.84-1.84-2.45-3.68-2.45-6.74c0-3.06,1.23-5.51,3.06-7.96c2.45-2.45,4.9-4.9,9.19-7.35C117.63,99.8,128.05,97.35,139.08,97.35z
			 M133.56,146.37c-2.45,0-4.9,1.23-6.74,3.06c-1.84,1.84-3.06,4.29-3.06,7.35c0,2.45,0.61,4.9,1.84,6.74
			c1.23,1.84,3.06,2.45,4.9,2.45c4.29,0,6.74-3.68,6.74-11.64c0-3.06-0.61-4.9-1.23-6.13C136.63,146.98,135.4,146.37,133.56,146.37z
			"/>
		<path class="st1" d="M223.63,97.35c3.06,0,7.35,0.61,14.09,1.84c1.23,0,2.45,0.61,3.06,0.61c1.23,0,3.06-0.61,5.51-1.23
			c1.23-0.61,2.45-0.61,3.06-0.61c2.45,0,5.51,1.84,7.96,4.9c2.45,2.45,3.68,5.51,5.51,8.58c1.23,3.06,1.84,6.13,1.84,8.58
			s-0.61,4.29-2.45,5.51c-1.84,1.23-3.68,2.45-6.13,2.45c-1.84,0-3.68-0.61-5.51-1.23c-1.23-1.23-4.29-3.06-7.35-6.13
			c-3.68-3.68-6.74-5.51-9.19-5.51c-1.84,0-3.06,0.61-4.29,1.84c-1.23,1.23-1.84,2.45-1.84,4.29c0,3.06,2.45,5.51,7.96,7.96
			c9.8,4.29,17.15,9.19,22.06,14.09c4.29,4.29,6.74,9.8,6.74,15.93c0,7.96-3.68,14.7-10.42,19.61c-6.13,4.9-13.48,6.74-22.06,6.74
			c-2.45,0-6.13-0.61-12.25-1.23c-5.51-0.61-8.58-1.23-9.19-1.23c-0.61,0-1.84,0-2.45,0.61c-1.84,0-3.06,0.61-3.68,0.61
			c-2.45,0-4.9-0.61-6.13-1.84c-2.45-2.45-4.29-5.51-6.74-9.8c-1.84-4.29-3.06-8.58-3.06-11.64c0-4.9,1.84-7.96,6.13-7.96
			c1.84,0,3.06,0.61,4.29,1.23c1.23,1.23,4.29,3.68,8.58,8.58c2.45,2.45,4.29,4.29,5.51,4.9c1.23,1.23,3.06,1.23,4.9,1.23
			c1.84,0,3.06-0.61,4.29-1.23c1.23-1.23,1.84-2.45,1.84-3.68c0-2.45-2.45-4.9-6.74-6.74c-9.19-4.29-15.93-9.19-19.61-14.09
			c-3.68-4.9-6.13-10.42-6.13-16.54c0-6.74,1.84-12.87,6.13-17.16C205.25,101.03,213.21,97.35,223.63,97.35z"/>
		<path class="st1" d="M352.9,139.01l-11.03,30.63c-3.06,7.35-5.51,14.09-8.58,18.99c-3.06,4.9-6.13,9.19-9.8,12.25
			c-7.35,6.74-15.93,10.42-26.35,10.42c-8.58,0-15.32-2.45-20.22-6.74c-3.68-3.68-6.13-7.96-6.13-12.87c0-4.29,1.23-7.96,4.29-11.03
			c3.06-3.06,6.13-4.29,10.42-4.29c4.29,0,7.35,1.23,9.8,4.29c1.23,1.23,1.84,2.45,2.45,3.06c0.61,0.61,1.23,3.06,1.84,6.13
			c0.61,2.45,1.84,3.68,4.29,3.68c1.84,0,3.06-0.61,4.29-2.45c1.23-1.84,1.84-3.68,1.84-5.51c0-2.45-1.23-7.35-4.29-13.48
			l-20.22-43.5c-2.45-4.29-3.68-7.35-4.9-8.58c-1.23-1.23-3.68-2.45-7.35-4.29c-1.23-0.61-2.45-1.23-3.06-2.45
			c-0.61-1.23-1.23-2.45-1.23-3.68c0-4.9,4.9-8.58,15.32-10.42c6.74-1.23,14.09-1.84,22.67-1.84c6.13,0,11.03,0.61,14.09,1.84
			c4.9,1.84,6.74,4.29,6.74,8.58c0,1.23-0.61,3.06-1.84,4.9s-1.84,3.68-1.84,4.9c0,1.23,0.61,3.06,0.61,4.29
			c0.61,1.23,1.84,3.68,3.68,7.35c2.45,3.68,3.68,6.13,5.51,6.13c1.84,0,3.68-1.84,5.51-5.51c1.84-3.68,3.06-6.74,3.06-9.8
			c0-2.45-0.61-4.9-2.45-6.13c-2.45-2.45-3.06-4.9-3.06-6.74c0-3.06,1.84-4.9,5.51-6.74c3.68-1.84,9.19-2.45,15.32-2.45
			c12.25,0,17.77,3.06,17.77,8.58c0,2.45-0.61,3.68-1.84,4.9c-1.23,1.23-3.68,2.45-6.74,3.68c-2.45,1.23-4.9,2.45-6.74,4.9
			C359.03,123.7,356.58,130.44,352.9,139.01z"/>
		<path class="st1" d="M450.32,64.27c6.13,0,12.87,0.61,19.61,1.84c5.51,0.61,9.19,2.45,11.64,3.68c2.45,1.84,3.68,3.68,3.68,6.74
			c0,1.84-0.61,3.06-1.23,4.29c-0.61,1.23-2.45,2.45-5.51,3.68c-3.06,1.84-4.9,3.68-5.51,6.13c-0.61,2.45-1.23,11.03-1.23,26.35
			s-0.61,23.89-0.61,26.96c0,3.06-0.61,6.13-1.23,8.58c-1.84,8.58-4.9,14.7-9.8,19.61c-4.29,3.68-9.19,6.74-15.93,9.19
			c-6.74,2.45-12.87,3.06-20.22,3.06c-6.13,0-12.87-0.61-18.99-2.45s-11.64-3.68-16.54-6.74c-3.68-2.45-6.74-5.51-9.19-9.8
			c-2.45-3.68-3.68-8.58-3.68-12.87c0-5.51,1.84-10.42,5.51-14.09c3.68-3.68,7.96-5.51,13.48-5.51c5.51,0,9.8,1.23,13.48,4.9
			c3.68,3.06,5.51,7.35,5.51,11.64c0,1.23-0.61,3.06-1.23,6.13c0,0.61,0,1.23,0,1.84c0,1.84,0.61,3.06,1.84,4.29s3.06,1.84,4.9,1.84
			c3.68,0,6.74-1.84,9.19-4.9c2.45-3.68,3.68-7.96,3.68-13.48v-7.96v-20.83c-0.61-12.87-0.61-20.22-1.23-22.06
			c-0.61-2.45-0.61-4.29-1.84-5.51c-0.61-1.23-1.84-1.84-2.45-2.45c-0.61-0.61-2.45-0.61-5.51-1.84c-1.23-0.61-2.45-1.23-3.68-2.45
			c-1.23-1.23-1.23-2.45-1.23-4.29c0-3.06,1.23-5.51,3.68-7.35c2.45-1.84,6.13-3.06,11.64-4.29
			C437.45,64.88,443.58,64.27,450.32,64.27z"/>
	</g>
	<g class="st0">
		<path class="st1" d="M567.34,143.91h-39.82c-1.84,0-2.45,0.61-2.45,2.45c0,3.68,1.84,7.35,6.13,10.42
			c3.68,3.06,8.58,4.9,12.87,4.9c2.45,0,5.51-0.61,9.19-1.23c3.06-1.23,6.13-2.45,8.58-3.68c1.84-1.23,3.68-1.84,4.9-1.84
			c1.23,0,3.06,0.61,4.29,2.45c1.23,1.84,2.45,3.68,2.45,5.51c0,4.29-2.45,7.96-7.35,11.64c-9.19,6.74-19.61,9.8-31.25,9.8
			c-11.64,0-22.06-3.68-30.02-10.42c-3.68-3.68-7.35-7.35-9.8-12.25c-3.06-6.74-4.9-12.87-4.9-20.22c0-9.19,3.06-17.77,8.58-25.73
			c4.9-6.74,11.03-11.64,18.99-14.7c5.51-2.45,12.25-3.68,18.99-3.68c11.03,0,19.61,3.06,27.57,9.19c3.68,3.06,6.74,6.74,9.19,11.03
			c2.45,4.9,3.68,9.19,3.68,14.09c0,3.68-0.61,6.74-2.45,9.19C572.24,142.69,569.79,143.91,567.34,143.91z M529.97,127.99h8.58
			c3.68,0,5.51-1.84,5.51-4.9s-0.61-5.51-2.45-7.35c-1.84-1.84-3.68-3.06-6.74-3.06c-3.06,0-5.51,1.23-7.35,3.68
			c-1.84,2.45-2.45,4.9-2.45,7.35c0,1.84,0.61,3.06,1.23,3.68C526.29,127.37,527.52,127.99,529.97,127.99z"/>
	</g>
	<g class="st0">
		<path class="st1" d="M630.45,119.41v28.8c0,3.68,0.61,6.13,2.45,8.58c1.84,2.45,3.68,3.06,6.74,3.06c2.45,0,4.9-1.23,8.58-3.06
			c0.61-0.61,1.84-0.61,2.45-0.61c1.23,0,2.45,0.61,3.68,2.45c1.23,1.84,1.84,3.68,1.84,5.51c0,3.68-1.84,6.74-5.51,9.8
			c-7.96,6.74-17.77,10.42-29.41,10.42c-9.19,0-16.54-2.45-22.06-7.35c-5.51-4.9-8.58-11.64-8.58-20.22v-39.21
			c0-1.23,0-2.45-0.61-2.45c-0.61-0.61-1.23-0.61-2.45-0.61h-7.96c-1.84,0-2.45-0.61-3.06-0.61c-0.61-0.61-0.61-1.84-0.61-3.68
			v-3.68c0-1.84,0.61-3.06,1.84-3.68l38.6-24.51c1.23-0.61,2.45-0.61,3.68-0.61h6.74c1.23,0,2.45,0.61,3.06,1.23
			c0.61,0.61,0.61,1.84,0.61,3.68v11.64c0,1.84,0.61,3.06,0.61,3.06c0.61,0.61,1.84,0.61,3.68,0.61h15.93
			c2.45,0,3.68,0.61,4.29,1.23c0.61,0.61,1.23,2.45,1.23,4.9v4.9c0,2.45-0.61,4.9-1.23,5.51s-2.45,1.23-4.29,1.23h-15.93
			c-1.84,0-2.45,0.61-3.06,0.61C631.06,116.96,630.45,117.57,630.45,119.41z"/>
	</g>
</g>
</svg>
